<svg width="1440" height="1024" viewBox="0 0 1440 1024" fill="none" xmlns="http://www.w3.org/2000/svg">
<rect width="1440" height="1024" fill="white"/>
<rect x="837.208" y="720.744" width="533.377" height="89.2558" rx="10" fill="#F26B27"/>
<path d="M1077.99 773.912C1076.87 773.912 1075.87 773.72 1074.97 773.336C1074.07 772.936 1073.37 772.376 1072.86 771.656C1072.35 770.936 1072.09 770.096 1072.09 769.136H1075.02C1075.08 769.856 1075.36 770.448 1075.86 770.912C1076.37 771.376 1077.08 771.608 1077.99 771.608C1078.94 771.608 1079.67 771.384 1080.2 770.936C1080.73 770.472 1080.99 769.88 1080.99 769.16C1080.99 768.6 1080.83 768.144 1080.49 767.792C1080.17 767.44 1079.76 767.168 1079.27 766.976C1078.79 766.784 1078.11 766.576 1077.25 766.352C1076.16 766.064 1075.27 765.776 1074.59 765.488C1073.91 765.184 1073.34 764.72 1072.86 764.096C1072.38 763.472 1072.14 762.64 1072.14 761.6C1072.14 760.64 1072.38 759.8 1072.86 759.08C1073.34 758.36 1074.01 757.808 1074.87 757.424C1075.74 757.04 1076.74 756.848 1077.87 756.848C1079.49 756.848 1080.81 757.256 1081.83 758.072C1082.87 758.872 1083.45 759.976 1083.56 761.384H1080.54C1080.49 760.776 1080.2 760.256 1079.67 759.824C1079.15 759.392 1078.45 759.176 1077.59 759.176C1076.8 759.176 1076.16 759.376 1075.67 759.776C1075.17 760.176 1074.92 760.752 1074.92 761.504C1074.92 762.016 1075.07 762.44 1075.38 762.776C1075.7 763.096 1076.1 763.352 1076.58 763.544C1077.06 763.736 1077.71 763.944 1078.55 764.168C1079.65 764.472 1080.55 764.776 1081.23 765.08C1081.94 765.384 1082.53 765.856 1083.01 766.496C1083.51 767.12 1083.75 767.96 1083.75 769.016C1083.75 769.864 1083.52 770.664 1083.06 771.416C1082.61 772.168 1081.95 772.776 1081.07 773.24C1080.2 773.688 1079.18 773.912 1077.99 773.912ZM1088.37 758.768C1087.88 758.768 1087.46 758.6 1087.13 758.264C1086.79 757.928 1086.62 757.512 1086.62 757.016C1086.62 756.52 1086.79 756.104 1087.13 755.768C1087.46 755.432 1087.88 755.264 1088.37 755.264C1088.85 755.264 1089.26 755.432 1089.6 755.768C1089.93 756.104 1090.1 756.52 1090.1 757.016C1090.1 757.512 1089.93 757.928 1089.6 758.264C1089.26 758.6 1088.85 758.768 1088.37 758.768ZM1089.72 760.52V773.744H1086.98V760.52H1089.72ZM1098.64 760.304C1099.66 760.304 1100.57 760.512 1101.35 760.928C1102.15 761.328 1102.77 761.832 1103.22 762.44V760.52H1105.98V773.96C1105.98 775.176 1105.73 776.256 1105.21 777.2C1104.7 778.16 1103.96 778.912 1102.98 779.456C1102.02 780 1100.87 780.272 1099.53 780.272C1097.73 780.272 1096.25 779.848 1095.06 779C1093.88 778.168 1093.21 777.032 1093.05 775.592H1095.76C1095.97 776.28 1096.41 776.832 1097.08 777.248C1097.77 777.68 1098.58 777.896 1099.53 777.896C1100.63 777.896 1101.52 777.56 1102.19 776.888C1102.88 776.216 1103.22 775.24 1103.22 773.96V771.752C1102.76 772.376 1102.13 772.904 1101.33 773.336C1100.54 773.752 1099.65 773.96 1098.64 773.96C1097.49 773.96 1096.43 773.672 1095.47 773.096C1094.53 772.504 1093.77 771.688 1093.21 770.648C1092.67 769.592 1092.4 768.4 1092.4 767.072C1092.4 765.744 1092.67 764.568 1093.21 763.544C1093.77 762.52 1094.53 761.728 1095.47 761.168C1096.43 760.592 1097.49 760.304 1098.64 760.304ZM1103.22 767.12C1103.22 766.208 1103.03 765.416 1102.65 764.744C1102.28 764.072 1101.79 763.56 1101.18 763.208C1100.57 762.856 1099.92 762.68 1099.21 762.68C1098.51 762.68 1097.85 762.856 1097.25 763.208C1096.64 763.544 1096.14 764.048 1095.76 764.72C1095.39 765.376 1095.21 766.16 1095.21 767.072C1095.21 767.984 1095.39 768.784 1095.76 769.472C1096.14 770.16 1096.64 770.688 1097.25 771.056C1097.87 771.408 1098.53 771.584 1099.21 771.584C1099.92 771.584 1100.57 771.408 1101.18 771.056C1101.79 770.704 1102.28 770.192 1102.65 769.52C1103.03 768.832 1103.22 768.032 1103.22 767.12ZM1116.25 760.304C1117.29 760.304 1118.22 760.52 1119.03 760.952C1119.86 761.384 1120.51 762.024 1120.98 762.872C1121.44 763.72 1121.67 764.744 1121.67 765.944V773.744H1118.96V766.352C1118.96 765.168 1118.66 764.264 1118.07 763.64C1117.48 763 1116.67 762.68 1115.65 762.68C1114.62 762.68 1113.81 763 1113.2 763.64C1112.61 764.264 1112.31 765.168 1112.31 766.352V773.744H1109.58V760.52H1112.31V762.032C1112.76 761.488 1113.33 761.064 1114.02 760.76C1114.72 760.456 1115.46 760.304 1116.25 760.304ZM1134.13 757.064V773.744H1131.4V757.064H1134.13ZM1144.4 760.304C1145.44 760.304 1146.36 760.52 1147.18 760.952C1148.01 761.384 1148.66 762.024 1149.12 762.872C1149.59 763.72 1149.82 764.744 1149.82 765.944V773.744H1147.11V766.352C1147.11 765.168 1146.81 764.264 1146.22 763.64C1145.63 763 1144.82 762.68 1143.8 762.68C1142.77 762.68 1141.96 763 1141.35 763.64C1140.76 764.264 1140.46 765.168 1140.46 766.352V773.744H1137.72V760.52H1140.46V762.032C1140.91 761.488 1141.48 761.064 1142.16 760.76C1142.87 760.456 1143.61 760.304 1144.4 760.304Z" fill="white"/>
<path d="M917.586 171.32C916.434 169.101 914.834 167.437 912.786 166.328C910.738 165.176 908.37 164.6 905.682 164.6C902.738 164.6 900.114 165.261 897.81 166.584C895.506 167.907 893.692 169.784 892.37 172.216C891.09 174.648 890.45 177.464 890.45 180.664C890.45 183.864 891.09 186.701 892.37 189.176C893.692 191.608 895.506 193.485 897.81 194.808C900.114 196.131 902.738 196.792 905.682 196.792C909.65 196.792 912.871 195.683 915.346 193.464C917.82 191.245 919.335 188.237 919.89 184.44H903.186V178.616H927.698V184.312C927.228 187.768 925.991 190.947 923.986 193.848C922.023 196.749 919.442 199.075 916.242 200.824C913.084 202.531 909.564 203.384 905.682 203.384C901.5 203.384 897.682 202.424 894.226 200.504C890.77 198.541 888.018 195.832 885.97 192.376C883.964 188.92 882.962 185.016 882.962 180.664C882.962 176.312 883.964 172.408 885.97 168.952C888.018 165.496 890.77 162.808 894.226 160.888C897.724 158.925 901.543 157.944 905.682 157.944C910.418 157.944 914.62 159.117 918.29 161.464C922.002 163.768 924.69 167.053 926.354 171.32H917.586ZM942.19 164.408V177.464H957.55V183.416H942.19V197.048H959.47V203H934.894V158.456H959.47V164.408H942.19ZM997.192 158.52V164.472H985.352V203H978.056V164.472H966.152V158.52H997.192ZM1005.73 158.52H1013.67L1006.95 173.752H1001.83L1005.73 158.52ZM1034.74 203.448C1031.75 203.448 1029.06 202.936 1026.67 201.912C1024.28 200.845 1022.41 199.352 1021.04 197.432C1019.68 195.512 1018.99 193.272 1018.99 190.712H1026.8C1026.97 192.632 1027.72 194.211 1029.04 195.448C1030.41 196.685 1032.31 197.304 1034.74 197.304C1037.25 197.304 1039.22 196.707 1040.63 195.512C1042.03 194.275 1042.74 192.696 1042.74 190.776C1042.74 189.283 1042.29 188.067 1041.39 187.128C1040.54 186.189 1039.45 185.464 1038.13 184.952C1036.85 184.44 1035.06 183.885 1032.75 183.288C1029.85 182.52 1027.48 181.752 1025.65 180.984C1023.86 180.173 1022.32 178.936 1021.04 177.272C1019.76 175.608 1019.12 173.389 1019.12 170.616C1019.12 168.056 1019.76 165.816 1021.04 163.896C1022.32 161.976 1024.11 160.504 1026.42 159.48C1028.72 158.456 1031.39 157.944 1034.42 157.944C1038.73 157.944 1042.25 159.032 1044.98 161.208C1047.75 163.341 1049.29 166.285 1049.59 170.04H1041.52C1041.39 168.419 1040.63 167.032 1039.22 165.88C1037.81 164.728 1035.95 164.152 1033.65 164.152C1031.56 164.152 1029.85 164.685 1028.53 165.752C1027.21 166.819 1026.55 168.355 1026.55 170.36C1026.55 171.725 1026.95 172.856 1027.76 173.752C1028.61 174.605 1029.68 175.288 1030.96 175.8C1032.24 176.312 1033.99 176.867 1036.21 177.464C1039.15 178.275 1041.54 179.085 1043.38 179.896C1045.25 180.707 1046.83 181.965 1048.11 183.672C1049.44 185.336 1050.1 187.576 1050.1 190.392C1050.1 192.653 1049.48 194.787 1048.24 196.792C1047.05 198.797 1045.28 200.419 1042.93 201.656C1040.63 202.851 1037.89 203.448 1034.74 203.448ZM1089.99 203.448C1087 203.448 1084.31 202.936 1081.92 201.912C1079.53 200.845 1077.66 199.352 1076.29 197.432C1074.93 195.512 1074.24 193.272 1074.24 190.712H1082.05C1082.22 192.632 1082.97 194.211 1084.29 195.448C1085.66 196.685 1087.56 197.304 1089.99 197.304C1092.5 197.304 1094.47 196.707 1095.88 195.512C1097.28 194.275 1097.99 192.696 1097.99 190.776C1097.99 189.283 1097.54 188.067 1096.64 187.128C1095.79 186.189 1094.7 185.464 1093.38 184.952C1092.1 184.44 1090.31 183.885 1088 183.288C1085.1 182.52 1082.73 181.752 1080.9 180.984C1079.11 180.173 1077.57 178.936 1076.29 177.272C1075.01 175.608 1074.37 173.389 1074.37 170.616C1074.37 168.056 1075.01 165.816 1076.29 163.896C1077.57 161.976 1079.36 160.504 1081.67 159.48C1083.97 158.456 1086.64 157.944 1089.67 157.944C1093.98 157.944 1097.5 159.032 1100.23 161.208C1103 163.341 1104.54 166.285 1104.84 170.04H1096.77C1096.64 168.419 1095.88 167.032 1094.47 165.88C1093.06 164.728 1091.2 164.152 1088.9 164.152C1086.81 164.152 1085.1 164.685 1083.78 165.752C1082.46 166.819 1081.8 168.355 1081.8 170.36C1081.8 171.725 1082.2 172.856 1083.01 173.752C1083.86 174.605 1084.93 175.288 1086.21 175.8C1087.49 176.312 1089.24 176.867 1091.46 177.464C1094.4 178.275 1096.79 179.085 1098.63 179.896C1100.5 180.707 1102.08 181.965 1103.36 183.672C1104.69 185.336 1105.35 187.576 1105.35 190.392C1105.35 192.653 1104.73 194.787 1103.49 196.792C1102.3 198.797 1100.53 200.419 1098.18 201.656C1095.88 202.851 1093.14 203.448 1089.99 203.448ZM1142.69 158.52V164.472H1130.85V203H1123.56V164.472H1111.65V158.52H1142.69ZM1176.9 193.912H1158.27L1155.07 203H1147.46L1163.39 158.456H1171.84L1187.78 203H1180.1L1176.9 193.912ZM1174.85 187.96L1167.62 167.288L1160.32 187.96H1174.85ZM1217.81 203L1207.57 185.208H1202V203H1194.71V158.52H1210.07C1213.48 158.52 1216.36 159.117 1218.71 160.312C1221.1 161.507 1222.87 163.107 1224.02 165.112C1225.21 167.117 1225.81 169.357 1225.81 171.832C1225.81 174.733 1224.96 177.379 1223.25 179.768C1221.59 182.115 1219 183.715 1215.51 184.568L1226.51 203H1217.81ZM1202 179.384H1210.07C1212.8 179.384 1214.84 178.701 1216.21 177.336C1217.62 175.971 1218.32 174.136 1218.32 171.832C1218.32 169.528 1217.64 167.736 1216.27 166.456C1214.91 165.133 1212.84 164.472 1210.07 164.472H1202V179.384ZM1263.88 158.52V164.472H1252.04V203H1244.74V164.472H1232.84V158.52H1263.88ZM1278.56 164.408V177.464H1293.92V183.416H1278.56V197.048H1295.84V203H1271.27V158.456H1295.84V164.408H1278.56ZM1319.36 158.52C1324.1 158.52 1328.23 159.437 1331.78 161.272C1335.36 163.064 1338.11 165.667 1340.03 169.08C1341.99 172.451 1342.98 176.397 1342.98 180.92C1342.98 185.443 1341.99 189.368 1340.03 192.696C1338.11 196.024 1335.36 198.584 1331.78 200.376C1328.23 202.125 1324.1 203 1319.36 203H1304.83V158.52H1319.36ZM1319.36 197.048C1324.56 197.048 1328.55 195.64 1331.33 192.824C1334.1 190.008 1335.49 186.04 1335.49 180.92C1335.49 175.757 1334.1 171.725 1331.33 168.824C1328.55 165.923 1324.56 164.472 1319.36 164.472H1312.13V197.048H1319.36Z" fill="#F26B27"/>
<g filter="url(#filter0_b_99_477)">
<rect x="841" y="397" width="544" height="89" rx="10" fill="#F8F8F8"/>
</g>
<rect x="841" y="575" width="544" height="89" rx="10" fill="#F8F8F8"/>
<path d="M834.536 352.528V357.424H840.296V359.656H834.536V364.768H841.016V367H831.8V350.296H841.016V352.528H834.536ZM860.394 353.56C861.434 353.56 862.362 353.776 863.178 354.208C864.01 354.64 864.658 355.28 865.122 356.128C865.602 356.976 865.842 358 865.842 359.2V367H863.13V359.608C863.13 358.424 862.834 357.52 862.242 356.896C861.65 356.256 860.842 355.936 859.818 355.936C858.794 355.936 857.978 356.256 857.37 356.896C856.778 357.52 856.482 358.424 856.482 359.608V367H853.77V359.608C853.77 358.424 853.474 357.52 852.882 356.896C852.29 356.256 851.482 355.936 850.458 355.936C849.434 355.936 848.618 356.256 848.01 356.896C847.418 357.52 847.122 358.424 847.122 359.608V367H844.386V353.776H847.122V355.288C847.57 354.744 848.138 354.32 848.826 354.016C849.514 353.712 850.25 353.56 851.034 353.56C852.09 353.56 853.034 353.784 853.866 354.232C854.698 354.68 855.338 355.328 855.786 356.176C856.186 355.376 856.81 354.744 857.658 354.28C858.506 353.8 859.418 353.56 860.394 353.56ZM868.411 360.328C868.411 359 868.683 357.824 869.227 356.8C869.787 355.776 870.539 354.984 871.483 354.424C872.443 353.848 873.499 353.56 874.651 353.56C875.691 353.56 876.595 353.768 877.363 354.184C878.147 354.584 878.771 355.088 879.235 355.696V353.776H881.995V367H879.235V365.032C878.771 365.656 878.139 366.176 877.339 366.592C876.539 367.008 875.627 367.216 874.603 367.216C873.467 367.216 872.427 366.928 871.483 366.352C870.539 365.76 869.787 364.944 869.227 363.904C868.683 362.848 868.411 361.656 868.411 360.328ZM879.235 360.376C879.235 359.464 879.043 358.672 878.659 358C878.291 357.328 877.803 356.816 877.195 356.464C876.587 356.112 875.931 355.936 875.227 355.936C874.523 355.936 873.867 356.112 873.259 356.464C872.651 356.8 872.155 357.304 871.771 357.976C871.403 358.632 871.219 359.416 871.219 360.328C871.219 361.24 871.403 362.04 871.771 362.728C872.155 363.416 872.651 363.944 873.259 364.312C873.883 364.664 874.539 364.84 875.227 364.84C875.931 364.84 876.587 364.664 877.195 364.312C877.803 363.96 878.291 363.448 878.659 362.776C879.043 362.088 879.235 361.288 879.235 360.376ZM886.981 352.024C886.485 352.024 886.069 351.856 885.733 351.52C885.397 351.184 885.229 350.768 885.229 350.272C885.229 349.776 885.397 349.36 885.733 349.024C886.069 348.688 886.485 348.52 886.981 348.52C887.461 348.52 887.869 348.688 888.205 349.024C888.541 349.36 888.709 349.776 888.709 350.272C888.709 350.768 888.541 351.184 888.205 351.52C887.869 351.856 887.461 352.024 886.981 352.024ZM888.325 353.776V367H885.589V353.776H888.325ZM894.653 349.24V367H891.917V349.24H894.653ZM903.568 360.328C903.568 359 903.84 357.824 904.384 356.8C904.944 355.776 905.696 354.984 906.64 354.424C907.6 353.848 908.656 353.56 909.808 353.56C910.848 353.56 911.752 353.768 912.52 354.184C913.304 354.584 913.928 355.088 914.392 355.696V353.776H917.152V367H914.392V365.032C913.928 365.656 913.296 366.176 912.496 366.592C911.696 367.008 910.784 367.216 909.76 367.216C908.624 367.216 907.584 366.928 906.64 366.352C905.696 365.76 904.944 364.944 904.384 363.904C903.84 362.848 903.568 361.656 903.568 360.328ZM914.392 360.376C914.392 359.464 914.2 358.672 913.816 358C913.448 357.328 912.96 356.816 912.352 356.464C911.744 356.112 911.088 355.936 910.384 355.936C909.68 355.936 909.024 356.112 908.416 356.464C907.808 356.8 907.312 357.304 906.928 357.976C906.56 358.632 906.376 359.416 906.376 360.328C906.376 361.24 906.56 362.04 906.928 362.728C907.312 363.416 907.808 363.944 908.416 364.312C909.04 364.664 909.696 364.84 910.384 364.84C911.088 364.84 911.744 364.664 912.352 364.312C912.96 363.96 913.448 363.448 913.816 362.776C914.2 362.088 914.392 361.288 914.392 360.376ZM919.833 360.328C919.833 359 920.105 357.824 920.649 356.8C921.209 355.776 921.961 354.984 922.905 354.424C923.865 353.848 924.929 353.56 926.097 353.56C926.961 353.56 927.809 353.752 928.641 354.136C929.489 354.504 930.161 355 930.657 355.624V349.24H933.417V367H930.657V365.008C930.209 365.648 929.585 366.176 928.785 366.592C928.001 367.008 927.097 367.216 926.073 367.216C924.921 367.216 923.865 366.928 922.905 366.352C921.961 365.76 921.209 364.944 920.649 363.904C920.105 362.848 919.833 361.656 919.833 360.328ZM930.657 360.376C930.657 359.464 930.465 358.672 930.081 358C929.713 357.328 929.225 356.816 928.617 356.464C928.009 356.112 927.353 355.936 926.649 355.936C925.945 355.936 925.289 356.112 924.681 356.464C924.073 356.8 923.577 357.304 923.193 357.976C922.825 358.632 922.641 359.416 922.641 360.328C922.641 361.24 922.825 362.04 923.193 362.728C923.577 363.416 924.073 363.944 924.681 364.312C925.305 364.664 925.961 364.84 926.649 364.84C927.353 364.84 928.009 364.664 928.617 364.312C929.225 363.96 929.713 363.448 930.081 362.776C930.465 362.088 930.657 361.288 930.657 360.376ZM939.747 355.696C940.147 355.024 940.675 354.504 941.331 354.136C942.003 353.752 942.795 353.56 943.707 353.56V356.392H943.011C941.939 356.392 941.123 356.664 940.563 357.208C940.019 357.752 939.747 358.696 939.747 360.04V367H937.011V353.776H939.747V355.696ZM958.342 360.064C958.342 360.56 958.31 361.008 958.246 361.408H948.142C948.222 362.464 948.614 363.312 949.318 363.952C950.022 364.592 950.886 364.912 951.91 364.912C953.382 364.912 954.422 364.296 955.03 363.064H957.982C957.582 364.28 956.854 365.28 955.798 366.064C954.758 366.832 953.462 367.216 951.91 367.216C950.646 367.216 949.51 366.936 948.502 366.376C947.51 365.8 946.726 365 946.15 363.976C945.59 362.936 945.31 361.736 945.31 360.376C945.31 359.016 945.582 357.824 946.126 356.8C946.686 355.76 947.462 354.96 948.454 354.4C949.462 353.84 950.614 353.56 951.91 353.56C953.158 353.56 954.27 353.832 955.246 354.376C956.222 354.92 956.982 355.688 957.526 356.68C958.07 357.656 958.342 358.784 958.342 360.064ZM955.486 359.2C955.47 358.192 955.11 357.384 954.406 356.776C953.702 356.168 952.83 355.864 951.79 355.864C950.846 355.864 950.038 356.168 949.366 356.776C948.694 357.368 948.294 358.176 948.166 359.2H955.486ZM965.834 367.216C964.794 367.216 963.858 367.032 963.026 366.664C962.21 366.28 961.562 365.768 961.082 365.128C960.602 364.472 960.346 363.744 960.314 362.944H963.146C963.194 363.504 963.458 363.976 963.938 364.36C964.434 364.728 965.05 364.912 965.786 364.912C966.554 364.912 967.146 364.768 967.562 364.48C967.994 364.176 968.21 363.792 968.21 363.328C968.21 362.832 967.97 362.464 967.49 362.224C967.026 361.984 966.282 361.72 965.258 361.432C964.266 361.16 963.458 360.896 962.834 360.64C962.21 360.384 961.666 359.992 961.202 359.464C960.754 358.936 960.53 358.24 960.53 357.376C960.53 356.672 960.738 356.032 961.154 355.456C961.57 354.864 962.162 354.4 962.93 354.064C963.714 353.728 964.61 353.56 965.618 353.56C967.122 353.56 968.33 353.944 969.242 354.712C970.17 355.464 970.666 356.496 970.73 357.808H967.994C967.946 357.216 967.706 356.744 967.274 356.392C966.842 356.04 966.258 355.864 965.522 355.864C964.802 355.864 964.25 356 963.866 356.272C963.482 356.544 963.29 356.904 963.29 357.352C963.29 357.704 963.418 358 963.674 358.24C963.93 358.48 964.242 358.672 964.61 358.816C964.978 358.944 965.522 359.112 966.242 359.32C967.202 359.576 967.986 359.84 968.594 360.112C969.218 360.368 969.754 360.752 970.202 361.264C970.65 361.776 970.882 362.456 970.898 363.304C970.898 364.056 970.69 364.728 970.274 365.32C969.858 365.912 969.266 366.376 968.498 366.712C967.746 367.048 966.858 367.216 965.834 367.216ZM978.655 367.216C977.615 367.216 976.679 367.032 975.847 366.664C975.031 366.28 974.383 365.768 973.903 365.128C973.423 364.472 973.167 363.744 973.135 362.944H975.967C976.015 363.504 976.279 363.976 976.759 364.36C977.255 364.728 977.871 364.912 978.607 364.912C979.375 364.912 979.967 364.768 980.383 364.48C980.815 364.176 981.031 363.792 981.031 363.328C981.031 362.832 980.791 362.464 980.311 362.224C979.847 361.984 979.103 361.72 978.079 361.432C977.087 361.16 976.279 360.896 975.655 360.64C975.031 360.384 974.487 359.992 974.023 359.464C973.575 358.936 973.351 358.24 973.351 357.376C973.351 356.672 973.559 356.032 973.975 355.456C974.391 354.864 974.983 354.4 975.751 354.064C976.535 353.728 977.431 353.56 978.439 353.56C979.943 353.56 981.151 353.944 982.063 354.712C982.991 355.464 983.487 356.496 983.551 357.808H980.815C980.767 357.216 980.527 356.744 980.095 356.392C979.663 356.04 979.079 355.864 978.343 355.864C977.623 355.864 977.071 356 976.687 356.272C976.303 356.544 976.111 356.904 976.111 357.352C976.111 357.704 976.239 358 976.495 358.24C976.751 358.48 977.063 358.672 977.431 358.816C977.799 358.944 978.343 359.112 979.063 359.32C980.023 359.576 980.807 359.84 981.415 360.112C982.039 360.368 982.575 360.752 983.023 361.264C983.471 361.776 983.703 362.456 983.719 363.304C983.719 364.056 983.511 364.728 983.095 365.32C982.679 365.912 982.087 366.376 981.319 366.712C980.567 367.048 979.679 367.216 978.655 367.216Z" fill="#2F2E41"/>
<path d="M843.464 543.288C843.464 544.136 843.264 544.936 842.864 545.688C842.464 546.44 841.824 547.056 840.944 547.536C840.064 548 838.936 548.232 837.56 548.232H834.536V555H831.8V538.32H837.56C838.84 538.32 839.92 538.544 840.8 538.992C841.696 539.424 842.36 540.016 842.792 540.768C843.24 541.52 843.464 542.36 843.464 543.288ZM837.56 546C838.6 546 839.376 545.768 839.888 545.304C840.4 544.824 840.656 544.152 840.656 543.288C840.656 541.464 839.624 540.552 837.56 540.552H834.536V546H837.56ZM845.161 548.328C845.161 547 845.433 545.824 845.977 544.8C846.537 543.776 847.289 542.984 848.233 542.424C849.193 541.848 850.249 541.56 851.401 541.56C852.441 541.56 853.345 541.768 854.113 542.184C854.897 542.584 855.521 543.088 855.985 543.696V541.776H858.745V555H855.985V553.032C855.521 553.656 854.889 554.176 854.089 554.592C853.289 555.008 852.377 555.216 851.353 555.216C850.217 555.216 849.177 554.928 848.233 554.352C847.289 553.76 846.537 552.944 845.977 551.904C845.433 550.848 845.161 549.656 845.161 548.328ZM855.985 548.376C855.985 547.464 855.793 546.672 855.409 546C855.041 545.328 854.553 544.816 853.945 544.464C853.337 544.112 852.681 543.936 851.977 543.936C851.273 543.936 850.617 544.112 850.009 544.464C849.401 544.8 848.905 545.304 848.521 545.976C848.153 546.632 847.969 547.416 847.969 548.328C847.969 549.24 848.153 550.04 848.521 550.728C848.905 551.416 849.401 551.944 850.009 552.312C850.633 552.664 851.289 552.84 851.977 552.84C852.681 552.84 853.337 552.664 853.945 552.312C854.553 551.96 855.041 551.448 855.409 550.776C855.793 550.088 855.985 549.288 855.985 548.376ZM867.139 555.216C866.099 555.216 865.163 555.032 864.331 554.664C863.515 554.28 862.867 553.768 862.387 553.128C861.907 552.472 861.651 551.744 861.619 550.944H864.451C864.499 551.504 864.763 551.976 865.243 552.36C865.739 552.728 866.355 552.912 867.091 552.912C867.859 552.912 868.451 552.768 868.867 552.48C869.299 552.176 869.515 551.792 869.515 551.328C869.515 550.832 869.275 550.464 868.795 550.224C868.331 549.984 867.587 549.72 866.563 549.432C865.571 549.16 864.763 548.896 864.139 548.64C863.515 548.384 862.971 547.992 862.507 547.464C862.059 546.936 861.835 546.24 861.835 545.376C861.835 544.672 862.043 544.032 862.459 543.456C862.875 542.864 863.467 542.4 864.235 542.064C865.019 541.728 865.915 541.56 866.923 541.56C868.427 541.56 869.635 541.944 870.547 542.712C871.475 543.464 871.971 544.496 872.035 545.808H869.299C869.251 545.216 869.011 544.744 868.579 544.392C868.147 544.04 867.563 543.864 866.827 543.864C866.107 543.864 865.555 544 865.171 544.272C864.787 544.544 864.595 544.904 864.595 545.352C864.595 545.704 864.723 546 864.979 546.24C865.235 546.48 865.547 546.672 865.915 546.816C866.283 546.944 866.827 547.112 867.547 547.32C868.507 547.576 869.291 547.84 869.899 548.112C870.523 548.368 871.059 548.752 871.507 549.264C871.955 549.776 872.187 550.456 872.203 551.304C872.203 552.056 871.995 552.728 871.579 553.32C871.163 553.912 870.571 554.376 869.803 554.712C869.051 555.048 868.163 555.216 867.139 555.216ZM879.959 555.216C878.919 555.216 877.983 555.032 877.151 554.664C876.335 554.28 875.687 553.768 875.207 553.128C874.727 552.472 874.471 551.744 874.439 550.944H877.271C877.319 551.504 877.583 551.976 878.063 552.36C878.559 552.728 879.175 552.912 879.911 552.912C880.679 552.912 881.271 552.768 881.687 552.48C882.119 552.176 882.335 551.792 882.335 551.328C882.335 550.832 882.095 550.464 881.615 550.224C881.151 549.984 880.407 549.72 879.383 549.432C878.391 549.16 877.583 548.896 876.959 548.64C876.335 548.384 875.791 547.992 875.327 547.464C874.879 546.936 874.655 546.24 874.655 545.376C874.655 544.672 874.863 544.032 875.279 543.456C875.695 542.864 876.287 542.4 877.055 542.064C877.839 541.728 878.735 541.56 879.743 541.56C881.247 541.56 882.455 541.944 883.367 542.712C884.295 543.464 884.791 544.496 884.855 545.808H882.119C882.071 545.216 881.831 544.744 881.399 544.392C880.967 544.04 880.383 543.864 879.647 543.864C878.927 543.864 878.375 544 877.991 544.272C877.607 544.544 877.415 544.904 877.415 545.352C877.415 545.704 877.543 546 877.799 546.24C878.055 546.48 878.367 546.672 878.735 546.816C879.103 546.944 879.647 547.112 880.367 547.32C881.327 547.576 882.111 547.84 882.719 548.112C883.343 548.368 883.879 548.752 884.327 549.264C884.775 549.776 885.007 550.456 885.023 551.304C885.023 552.056 884.815 552.728 884.399 553.32C883.983 553.912 883.391 554.376 882.623 554.712C881.871 555.048 880.983 555.216 879.959 555.216ZM905.74 541.776L901.636 555H898.756L896.092 545.232L893.428 555H890.548L886.42 541.776H889.204L891.964 552.408L894.772 541.776H897.628L900.316 552.36L903.052 541.776H905.74ZM913.52 555.216C912.272 555.216 911.144 554.936 910.136 554.376C909.128 553.8 908.336 553 907.76 551.976C907.184 550.936 906.896 549.736 906.896 548.376C906.896 547.032 907.192 545.84 907.784 544.8C908.376 543.76 909.184 542.96 910.208 542.4C911.232 541.84 912.376 541.56 913.64 541.56C914.904 541.56 916.048 541.84 917.072 542.4C918.096 542.96 918.904 543.76 919.496 544.8C920.088 545.84 920.384 547.032 920.384 548.376C920.384 549.72 920.08 550.912 919.472 551.952C918.864 552.992 918.032 553.8 916.976 554.376C915.936 554.936 914.784 555.216 913.52 555.216ZM913.52 552.84C914.224 552.84 914.88 552.672 915.488 552.336C916.112 552 916.616 551.496 917 550.824C917.384 550.152 917.576 549.336 917.576 548.376C917.576 547.416 917.392 546.608 917.024 545.952C916.656 545.28 916.168 544.776 915.56 544.44C914.952 544.104 914.296 543.936 913.592 543.936C912.888 543.936 912.232 544.104 911.624 544.44C911.032 544.776 910.56 545.28 910.208 545.952C909.856 546.608 909.68 547.416 909.68 548.376C909.68 549.8 910.04 550.904 910.76 551.688C911.496 552.456 912.416 552.84 913.52 552.84ZM925.825 543.696C926.225 543.024 926.753 542.504 927.409 542.136C928.081 541.752 928.873 541.56 929.785 541.56V544.392H929.089C928.017 544.392 927.201 544.664 926.641 545.208C926.097 545.752 925.825 546.696 925.825 548.04V555H923.089V541.776H925.825V543.696ZM931.388 548.328C931.388 547 931.66 545.824 932.204 544.8C932.764 543.776 933.516 542.984 934.46 542.424C935.42 541.848 936.484 541.56 937.652 541.56C938.516 541.56 939.364 541.752 940.196 542.136C941.044 542.504 941.716 543 942.212 543.624V537.24H944.972V555H942.212V553.008C941.764 553.648 941.14 554.176 940.34 554.592C939.556 555.008 938.652 555.216 937.628 555.216C936.476 555.216 935.42 554.928 934.46 554.352C933.516 553.76 932.764 552.944 932.204 551.904C931.66 550.848 931.388 549.656 931.388 548.328ZM942.212 548.376C942.212 547.464 942.02 546.672 941.636 546C941.268 545.328 940.78 544.816 940.172 544.464C939.564 544.112 938.908 543.936 938.204 543.936C937.5 543.936 936.844 544.112 936.236 544.464C935.628 544.8 935.132 545.304 934.748 545.976C934.38 546.632 934.196 547.416 934.196 548.328C934.196 549.24 934.38 550.04 934.748 550.728C935.132 551.416 935.628 551.944 936.236 552.312C936.86 552.664 937.516 552.84 938.204 552.84C938.908 552.84 939.564 552.664 940.172 552.312C940.78 551.96 941.268 551.448 941.636 550.776C942.02 550.088 942.212 549.288 942.212 548.376Z" fill="#2F2E41"/>
<path d="M657.575 555H492V708.932H657.575V555Z" fill="white"/>
<g clip-path="url(#clip0_99_477)" filter="url(#filter1_d_99_477)">
<path d="M239.969 405.798C241.182 406.621 242.373 407.46 243.561 408.326C256.12 442.815 263.291 479.359 264.775 516.436C264.958 520.724 265.051 525.006 265.054 529.28C265.162 561.336 260.888 593.23 252.373 623.909C251.924 625.524 251.465 627.132 250.996 628.734C250.66 629.884 250.318 631.044 249.947 632.185C249.552 632.77 249.164 633.344 248.775 633.918C248.748 633.943 248.724 633.986 248.696 634.011C248.54 634.243 248.383 634.475 248.242 634.702C247.571 635.686 246.889 636.664 246.218 637.648L246.783 637.69L248.201 637.788L248.195 637.798C247.719 637.788 247.233 637.77 246.753 637.743C246.579 637.743 246.389 637.748 246.211 637.731C246.052 637.728 245.884 637.718 245.725 637.714C225.28 637.11 204.358 635.996 185.753 626.871C166.281 617.311 149.763 596.642 150.602 573.363C150.72 570.314 151.144 567.288 151.866 564.34C152.167 563.109 152.523 561.899 152.905 560.692C155.227 553.301 159.311 546.718 164.736 541.621C170.161 536.523 176.733 533.095 183.774 531.688C190.816 530.281 198.074 530.947 204.801 533.617C211.529 536.286 217.484 540.863 222.054 546.878C216.473 522.939 192.516 510.723 170.938 503.297C149.344 495.874 125.049 488.11 114.016 466.541C107.857 454.538 107.709 440.554 111.728 427.64C111.85 427.254 111.979 426.857 112.117 426.467C117.179 411.273 127.307 398.723 140.477 391.325C165.154 377.989 195.14 382.695 220.424 394.597C227.189 397.786 233.723 401.531 239.969 405.798V405.798Z" fill="#F2F2F2"/>
<path d="M169.24 560.79C188.637 562.737 206.944 571.443 221.457 585.623C233.818 597.834 242.939 613.452 247.862 630.838C248.149 631.833 248.41 632.826 248.655 633.823C249.145 632.804 249.621 631.763 250.091 630.732C250.394 630.072 250.703 629.401 250.996 628.734C250.66 629.884 250.318 631.044 249.947 632.185C249.553 632.77 249.164 633.344 248.776 633.918C248.748 633.943 248.724 633.985 248.696 634.011C248.54 634.243 248.383 634.475 248.243 634.702C247.571 635.686 246.889 636.664 246.218 637.648L246.783 637.69L248.201 637.788L248.195 637.798C247.719 637.788 247.234 637.77 246.754 637.743C246.579 637.743 246.389 637.748 246.211 637.731C246.152 637.429 246.078 637.132 246.004 636.833C240.979 614.378 228.678 594.668 211.374 581.342C194.07 568.017 172.932 561.978 151.866 564.34C152.167 563.109 152.523 561.899 152.905 560.692C158.342 560.206 163.808 560.239 169.24 560.79Z" fill="white"/>
<path d="M233.685 472.246C241.468 478.61 248.357 486.181 254.134 494.719C257.144 499.271 259.759 504.118 261.946 509.199C262.982 511.557 263.926 513.984 264.775 516.436C264.958 520.724 265.051 525.006 265.053 529.28C264.332 526.049 263.453 522.862 262.42 519.732C261.883 518.014 261.286 516.33 260.652 514.665C253.54 496.019 240.655 481.296 225.458 470.103C209.174 458.126 190.815 449.135 172.21 442.449C153.143 435.566 133.374 431.259 113.347 429.627C112.895 429.587 112.474 429.358 112.172 428.988C111.871 428.618 111.712 428.135 111.728 427.64C111.713 427.208 111.852 426.788 112.117 426.467C112.258 426.317 112.429 426.204 112.616 426.139C112.804 426.074 113.003 426.058 113.198 426.092C115.669 426.294 118.134 426.507 120.599 426.792C141.108 429.098 161.275 434.179 180.636 441.918C199.325 449.362 217.822 459.015 233.685 472.246Z" fill="white"/>
<path d="M132.064 369.12C135.85 369.12 138.919 365.77 138.919 361.638C138.919 357.505 135.85 354.155 132.064 354.155C128.278 354.155 125.209 357.505 125.209 361.638C125.209 365.77 128.278 369.12 132.064 369.12Z" fill="#F2F2F2"/>
<path d="M553.2 430.713H242.018V720.013H553.2V430.713Z" fill="white"/>
<path d="M554.104 721H241.113V429.725H554.104V721ZM242.922 719.025H552.295V431.7H242.922V719.025Z" fill="#3F3D56"/>
<path d="M436.506 486.993H358.711V720.013H436.506V486.993Z" fill="#F26B27"/>
<path d="M436.506 486.993H358.711V720.013H436.506V486.993Z" fill="#F26B27"/>
<path opacity="0.2" d="M242.922 451.941V498.879L553.199 520.563L552.285 462.646L242.922 451.941Z" fill="black"/>
<path d="M571.292 404.054H223.926V486.993H571.292V404.054Z" fill="white"/>
<path d="M572.196 487.98H223.021V403.066H572.196V487.98ZM224.83 486.006H570.387V405.041H224.83V486.006Z" fill="#3F3D56"/>
<path d="M436.506 396.155H358.711V486.005H436.506V396.155Z" fill="#F26B27"/>
<path d="M389.279 317.813C409.815 351.039 390.466 404.48 390.466 404.48C390.466 404.48 337.823 404.049 317.288 370.822C296.752 337.596 316.1 284.155 316.1 284.155C316.1 284.155 368.744 284.586 389.279 317.813Z" fill="#F26B27"/>
<path d="M398.701 317.813C378.166 351.039 397.514 404.48 397.514 404.48C397.514 404.48 450.157 404.049 470.693 370.822C491.229 337.596 471.88 284.155 471.88 284.155C471.88 284.155 419.237 284.586 398.701 317.813Z" fill="#F26B27"/>
<path d="M343.333 342.837C347.829 342.837 351.474 338.858 351.474 333.95C351.474 329.042 347.829 325.064 343.333 325.064C338.836 325.064 335.191 329.042 335.191 333.95C335.191 338.858 338.836 342.837 343.333 342.837Z" fill="#3F3D56"/>
<path d="M392.181 432.687C396.678 432.687 400.323 428.709 400.323 423.801C400.323 418.893 396.678 414.915 392.181 414.915C387.685 414.915 384.04 418.893 384.04 423.801C384.04 428.709 387.685 432.687 392.181 432.687Z" fill="#3F3D56"/>
<path d="M392.181 627.2C396.678 627.2 400.323 623.221 400.323 618.313C400.323 613.406 396.678 609.427 392.181 609.427C387.685 609.427 384.04 613.406 384.04 618.313C384.04 623.221 387.685 627.2 392.181 627.2Z" fill="#3F3D56"/>
<path d="M365.043 372.458C368.041 372.458 370.471 369.805 370.471 366.533C370.471 363.262 368.041 360.609 365.043 360.609C362.045 360.609 359.615 363.262 359.615 366.533C359.615 369.805 362.045 372.458 365.043 372.458Z" fill="#3F3D56"/>
<path d="M446.457 322.102C449.454 322.102 451.885 319.449 451.885 316.178C451.885 312.906 449.454 310.253 446.457 310.253C443.459 310.253 441.029 312.906 441.029 316.178C441.029 319.449 443.459 322.102 446.457 322.102Z" fill="#3F3D56"/>
<path d="M411.178 461.321C414.175 461.321 416.605 458.669 416.605 455.397C416.605 452.125 414.175 449.473 411.178 449.473C408.18 449.473 405.75 452.125 405.75 455.397C405.75 458.669 408.18 461.321 411.178 461.321Z" fill="#3F3D56"/>
<path d="M378.612 538.336C381.61 538.336 384.04 535.684 384.04 532.412C384.04 529.14 381.61 526.488 378.612 526.488C375.615 526.488 373.185 529.14 373.185 532.412C373.185 535.684 375.615 538.336 378.612 538.336Z" fill="#3F3D56"/>
<path d="M406.655 564.995C409.652 564.995 412.082 562.343 412.082 559.071C412.082 555.799 409.652 553.147 406.655 553.147C403.657 553.147 401.227 555.799 401.227 559.071C401.227 562.343 403.657 564.995 406.655 564.995Z" fill="#3F3D56"/>
<path d="M400.323 676.568C403.32 676.568 405.75 673.916 405.75 670.644C405.75 667.372 403.32 664.72 400.323 664.72C397.325 664.72 394.895 667.372 394.895 670.644C394.895 673.916 397.325 676.568 400.323 676.568Z" fill="#3F3D56"/>
<path d="M672.373 721H505.836V566.018H672.373V721ZM506.799 719.949H671.411V567.068H506.799V719.949Z" fill="#3F3D56"/>
<path d="M609.802 596.489H568.408V720.475H609.802V596.489Z" fill="#F26B27"/>
<path d="M609.802 596.489H568.408V720.475H609.802V596.489Z" fill="#F26B27"/>
<path opacity="0.2" d="M506.799 577.839V602.813L671.893 614.351L671.406 583.535L506.799 577.839Z" fill="black"/>
<path d="M681.519 552.358H496.691V596.489H681.519V552.358Z" fill="white"/>
<path d="M682 597.014H496.21V551.833H682V597.014ZM497.173 595.963H681.037V552.884H497.173V595.963Z" fill="#3F3D56"/>
<path d="M609.802 548.155H568.408V595.963H609.802V548.155Z" fill="#F26B27"/>
<path d="M584.673 506.471C595.6 524.15 585.305 552.585 585.305 552.585C585.305 552.585 557.294 552.356 546.367 534.676C535.441 516.997 545.736 488.562 545.736 488.562C545.736 488.562 573.746 488.792 584.673 506.471Z" fill="#F26B27"/>
<path d="M589.686 506.471C578.76 524.15 589.055 552.585 589.055 552.585C589.055 552.585 617.065 552.356 627.992 534.676C638.918 516.997 628.623 488.562 628.623 488.562C628.623 488.562 600.613 488.792 589.686 506.471Z" fill="#F26B27"/>
<path d="M560.226 519.786C562.618 519.786 564.558 517.669 564.558 515.057C564.558 512.446 562.618 510.329 560.226 510.329C557.833 510.329 555.894 512.446 555.894 515.057C555.894 517.669 557.833 519.786 560.226 519.786Z" fill="#3F3D56"/>
<path d="M586.217 567.594C588.61 567.594 590.549 565.477 590.549 562.865C590.549 560.254 588.61 558.137 586.217 558.137C583.825 558.137 581.885 560.254 581.885 562.865C581.885 565.477 583.825 567.594 586.217 567.594Z" fill="#3F3D56"/>
<path d="M586.217 671.09C588.61 671.09 590.549 668.974 590.549 666.362C590.549 663.751 588.61 661.634 586.217 661.634C583.825 661.634 581.885 663.751 581.885 666.362C581.885 668.974 583.825 671.09 586.217 671.09Z" fill="#3F3D56"/>
<path d="M571.778 535.547C573.373 535.547 574.665 534.135 574.665 532.394C574.665 530.653 573.373 529.242 571.778 529.242C570.183 529.242 568.89 530.653 568.89 532.394C568.89 534.135 570.183 535.547 571.778 535.547Z" fill="#3F3D56"/>
<path d="M615.096 508.753C616.691 508.753 617.984 507.342 617.984 505.601C617.984 503.86 616.691 502.449 615.096 502.449C613.501 502.449 612.208 503.86 612.208 505.601C612.208 507.342 613.501 508.753 615.096 508.753Z" fill="#3F3D56"/>
<path d="M596.325 582.829C597.92 582.829 599.213 581.418 599.213 579.677C599.213 577.936 597.92 576.525 596.325 576.525C594.73 576.525 593.437 577.936 593.437 579.677C593.437 581.418 594.73 582.829 596.325 582.829Z" fill="#3F3D56"/>
<path d="M578.997 623.808C580.592 623.808 581.885 622.396 581.885 620.656C581.885 618.915 580.592 617.503 578.997 617.503C577.402 617.503 576.109 618.915 576.109 620.656C576.109 622.396 577.402 623.808 578.997 623.808Z" fill="#3F3D56"/>
<path d="M593.918 637.993C595.513 637.993 596.806 636.581 596.806 634.84C596.806 633.1 595.513 631.688 593.918 631.688C592.323 631.688 591.03 633.1 591.03 634.84C591.03 636.581 592.323 637.993 593.918 637.993Z" fill="#3F3D56"/>
<path d="M590.549 697.359C592.144 697.359 593.437 695.947 593.437 694.206C593.437 692.465 592.144 691.054 590.549 691.054C588.954 691.054 587.661 692.465 587.661 694.206C587.661 695.947 588.954 697.359 590.549 697.359Z" fill="#3F3D56"/>
<path d="M386.993 649.555C388.44 646.225 381.733 639.445 372.013 634.413C362.293 629.381 353.24 628.002 351.792 631.333C350.345 634.664 357.052 641.443 366.772 646.475C376.492 651.507 385.545 652.886 386.993 649.555Z" fill="#2F2E41"/>
<path d="M467.215 683.861C469.805 681.495 466.305 672.278 459.399 663.274C452.492 654.271 444.795 648.89 442.205 651.257C439.616 653.623 443.115 662.84 450.021 671.844C456.928 680.847 464.626 686.228 467.215 683.861Z" fill="#2F2E41"/>
<path d="M413.273 702.699C434.789 702.699 452.232 683.661 452.232 660.175C452.232 636.69 434.789 617.652 413.273 617.652C391.757 617.652 374.314 636.69 374.314 660.175C374.314 683.661 391.757 702.699 413.273 702.699Z" fill="#2F2E41"/>
<path d="M429.763 693.548H417.927V716.694H429.763V693.548Z" fill="#2F2E41"/>
<path d="M406.092 693.548H394.256V716.694H406.092V693.548Z" fill="#2F2E41"/>
<path d="M419.9 721C425.347 721 429.763 719.193 429.763 716.963C429.763 714.733 425.347 712.926 419.9 712.926C414.453 712.926 410.037 714.733 410.037 716.963C410.037 719.193 414.453 721 419.9 721Z" fill="#2F2E41"/>
<path d="M396.229 720.462C401.676 720.462 406.092 718.654 406.092 716.425C406.092 714.195 401.676 712.388 396.229 712.388C390.782 712.388 386.366 714.195 386.366 716.425C386.366 718.654 390.782 720.462 396.229 720.462Z" fill="#2F2E41"/>
<path d="M401.04 606.722C404.519 591.431 419.875 582.432 435.338 586.623C450.801 590.814 460.517 606.608 457.038 621.899C453.559 637.191 442.018 637.24 426.555 633.049C411.092 628.858 397.562 622.014 401.04 606.722Z" fill="#E6E6E6"/>
<path d="M407.449 665.38C414.622 665.38 420.438 659.033 420.438 651.203C420.438 643.373 414.622 637.025 407.449 637.025C400.275 637.025 394.46 643.373 394.46 651.203C394.46 659.033 400.275 665.38 407.449 665.38Z" fill="white"/>
<path d="M402.11 650.847C404.501 650.847 406.44 648.731 406.44 646.121C406.44 643.511 404.501 641.395 402.11 641.395C399.719 641.395 397.781 643.511 397.781 646.121C397.781 648.731 399.719 650.847 402.11 650.847Z" fill="#3F3D56"/>
<path d="M415.597 680.74C415.8 681.961 415.782 683.214 415.542 684.428C415.302 685.641 414.845 686.791 414.198 687.811C413.551 688.832 412.726 689.704 411.77 690.376C410.815 691.049 409.747 691.51 408.628 691.732C407.51 691.954 406.362 691.934 405.25 691.672C404.139 691.41 403.085 690.912 402.15 690.205C401.215 689.499 400.416 688.599 399.8 687.555C399.184 686.512 398.762 685.347 398.558 684.126V684.126L398.555 684.108C397.703 678.971 401.342 677.154 406.048 676.224C410.753 675.294 414.745 675.604 415.597 680.74Z" fill="white"/>
<path d="M492.039 339.918C501.982 335.435 508.998 329.039 507.708 325.632C506.419 322.225 497.313 323.096 487.37 327.579C477.426 332.062 470.411 338.458 471.7 341.865C472.99 345.272 482.095 344.4 492.039 339.918Z" fill="#2F2E41"/>
<path d="M587.527 369.266C590.116 366.9 586.617 357.683 579.711 348.679C572.804 339.676 565.106 334.295 562.517 336.662C559.927 339.028 563.427 348.246 570.333 357.249C577.239 366.252 584.937 371.633 587.527 369.266Z" fill="#2F2E41"/>
<path d="M533.585 388.104C555.101 388.104 572.543 369.066 572.543 345.581C572.543 322.096 555.101 303.057 533.585 303.057C512.068 303.057 494.626 322.096 494.626 345.581C494.626 369.066 512.068 388.104 533.585 388.104Z" fill="#2F2E41"/>
<path d="M550.074 378.953H538.239V402.099H550.074V378.953Z" fill="#2F2E41"/>
<path d="M526.403 378.953H514.568V402.099H526.403V378.953Z" fill="#2F2E41"/>
<path d="M540.211 406.405C545.659 406.405 550.074 404.598 550.074 402.368C550.074 400.139 545.659 398.331 540.211 398.331C534.764 398.331 530.348 400.139 530.348 402.368C530.348 404.598 534.764 406.405 540.211 406.405Z" fill="#2F2E41"/>
<path d="M516.54 405.867C521.988 405.867 526.403 404.06 526.403 401.83C526.403 399.6 521.988 397.793 516.54 397.793C511.093 397.793 506.677 399.6 506.677 401.83C506.677 404.06 511.093 405.867 516.54 405.867Z" fill="#2F2E41"/>
<path d="M521.352 292.127C524.831 276.836 540.186 267.837 555.65 272.028C571.113 276.219 580.828 292.013 577.35 307.304C573.871 322.596 562.33 322.645 546.866 318.454C531.403 314.263 517.873 307.419 521.352 292.127Z" fill="#F26B27"/>
<path d="M527.76 350.785C534.934 350.785 540.749 344.438 540.749 336.608C540.749 328.778 534.934 322.431 527.76 322.431C520.587 322.431 514.771 328.778 514.771 336.608C514.771 344.438 520.587 350.785 527.76 350.785Z" fill="white"/>
<path d="M522.422 343.163C524.813 343.163 526.751 341.048 526.751 338.438C526.751 335.828 524.813 333.712 522.422 333.712C520.031 333.712 518.092 335.828 518.092 338.438C518.092 341.048 520.031 343.163 522.422 343.163Z" fill="#3F3D56"/>
<path d="M535.908 366.146C536.32 368.612 535.817 371.155 534.51 373.217C533.203 375.278 531.199 376.688 528.94 377.137C526.681 377.586 524.35 377.037 522.462 375.61C520.573 374.184 519.281 371.997 518.87 369.531L518.867 369.513C518.015 364.376 521.653 362.559 526.359 361.629C531.065 360.699 535.057 361.009 535.908 366.146Z" fill="white"/>
<path d="M200.26 702.699C221.776 702.699 239.219 683.66 239.219 660.175C239.219 636.69 221.776 617.652 200.26 617.652C178.744 617.652 161.301 636.69 161.301 660.175C161.301 683.66 178.744 702.699 200.26 702.699Z" fill="#2F2E41"/>
<path d="M194.342 693.548H182.507V716.694H194.342V693.548Z" fill="#2F2E41"/>
<path d="M218.013 693.548H206.178V716.694H218.013V693.548Z" fill="#2F2E41"/>
<path d="M192.37 721C197.817 721 202.233 719.193 202.233 716.963C202.233 714.733 197.817 712.926 192.37 712.926C186.922 712.926 182.507 714.733 182.507 716.963C182.507 719.193 186.922 721 192.37 721Z" fill="#2F2E41"/>
<path d="M216.041 720.462C221.488 720.462 225.904 718.654 225.904 716.425C225.904 714.195 221.488 712.388 216.041 712.388C210.594 712.388 206.178 714.195 206.178 716.425C206.178 718.654 210.594 720.462 216.041 720.462Z" fill="#2F2E41"/>
<path d="M162.469 620.63C159.323 605.253 169.379 589.715 184.929 585.925C200.479 582.135 215.635 591.528 218.781 606.905C221.926 622.282 211.621 627.954 196.071 631.744C180.521 635.534 165.615 636.007 162.469 620.63Z" fill="#F26B27"/>
<path d="M242.242 641.593C250.679 632.377 255.37 622.562 252.719 619.671C250.068 616.78 241.08 621.908 232.643 631.124C224.206 640.34 219.515 650.155 222.166 653.046C224.816 655.937 233.805 650.81 242.242 641.593Z" fill="#2F2E41"/>
<path d="M168.858 656.008C171.509 653.117 166.818 643.302 158.381 634.086C149.944 624.87 140.955 619.742 138.304 622.633C135.654 625.524 140.345 635.339 148.782 644.556C157.219 653.772 166.207 658.9 168.858 656.008Z" fill="#2F2E41"/>
<path d="M198.621 668.682C205.975 668.682 211.936 662.176 211.936 654.149C211.936 646.123 205.975 639.616 198.621 639.616C191.267 639.616 185.306 646.123 185.306 654.149C185.306 662.176 191.267 668.682 198.621 668.682Z" fill="white"/>
<path d="M198.621 658.994C201.072 658.994 203.059 656.825 203.059 654.149C203.059 651.474 201.072 649.305 198.621 649.305C196.17 649.305 194.183 651.474 194.183 654.149C194.183 656.825 196.17 658.994 198.621 658.994Z" fill="#3F3D56"/>
<path d="M209.191 681.028C209.394 682.249 209.376 683.502 209.136 684.715C208.896 685.929 208.439 687.078 207.792 688.099C207.145 689.12 206.32 689.991 205.364 690.664C204.409 691.337 203.341 691.797 202.222 692.019C201.104 692.242 199.956 692.221 198.844 691.959C197.733 691.697 196.679 691.199 195.744 690.493C194.809 689.787 194.011 688.886 193.394 687.843C192.778 686.8 192.356 685.635 192.152 684.413V684.413L192.149 684.395C191.297 679.259 194.936 677.441 199.642 676.511C204.347 675.581 208.339 675.892 209.191 681.028Z" fill="white"/>
</g>
<defs>
<filter id="filter0_b_99_477" x="837" y="393" width="552" height="97" filterUnits="userSpaceOnUse" color-interpolation-filters="sRGB">
<feFlood flood-opacity="0" result="BackgroundImageFix"/>
<feGaussianBlur in="BackgroundImage" stdDeviation="2"/>
<feComposite in2="SourceAlpha" operator="in" result="effect1_backgroundBlur_99_477"/>
<feBlend mode="normal" in="SourceGraphic" in2="effect1_backgroundBlur_99_477" result="shape"/>
</filter>
<filter id="filter1_d_99_477" x="105" y="271" width="581" height="458" filterUnits="userSpaceOnUse" color-interpolation-filters="sRGB">
<feFlood flood-opacity="0" result="BackgroundImageFix"/>
<feColorMatrix in="SourceAlpha" type="matrix" values="0 0 0 0 0 0 0 0 0 0 0 0 0 0 0 0 0 0 127 0" result="hardAlpha"/>
<feOffset dy="4"/>
<feGaussianBlur stdDeviation="2"/>
<feComposite in2="hardAlpha" operator="out"/>
<feColorMatrix type="matrix" values="0 0 0 0 0 0 0 0 0 0 0 0 0 0 0 0 0 0 0.25 0"/>
<feBlend mode="normal" in2="BackgroundImageFix" result="effect1_dropShadow_99_477"/>
<feBlend mode="normal" in="SourceGraphic" in2="effect1_dropShadow_99_477" result="shape"/>
</filter>
<clipPath id="clip0_99_477">
<rect width="573" height="450" fill="white" transform="translate(109 271)"/>
</clipPath>
</defs>
</svg>
