<svg width="1440" height="1024" viewBox="0 0 1440 1024" fill="none" xmlns="http://www.w3.org/2000/svg">
<g clip-path="url(#clip0_100_478)">
<rect width="1440" height="1024" fill="white"/>
<g filter="url(#filter0_d_100_478)">
<rect x="71" y="362" width="351" height="378" rx="10" fill="#F8F8F8"/>
</g>
<g filter="url(#filter1_d_100_478)">
<rect x="988" y="362" width="351" height="378" rx="10" fill="#F8F8F8"/>
</g>
<g filter="url(#filter2_d_100_478)">
<rect x="512" y="362" width="359" height="378" rx="10" fill="#F8F8F8"/>
</g>
<g filter="url(#filter3_d_100_478)">
<rect x="-4" width="1456" height="146" rx="10" fill="white"/>
</g>
<path d="M1240 94H1291V85.6667C1290.99 82.5736 1289.11 79.6081 1285.77 77.421C1282.42 75.2338 1277.88 74.0035 1273.15 74H1257.85C1253.12 74.0035 1248.58 75.2338 1245.23 77.421C1241.89 79.6081 1240.01 82.5736 1240 85.6667V94Z" fill="#CCCCCC"/>
<path d="M1247 62C1247 64.1756 1248.11 66.3023 1250.2 68.1113C1252.29 69.9202 1255.26 71.3301 1258.73 72.1627C1262.2 72.9952 1266.02 73.2131 1269.71 72.7886C1273.39 72.3642 1276.78 71.3165 1279.44 69.7782C1282.09 68.2398 1283.9 66.2798 1284.63 64.146C1285.37 62.0122 1284.99 59.8005 1283.55 57.7905C1282.12 55.7805 1279.68 54.0625 1276.56 52.8538C1273.43 51.6451 1269.76 51 1266 51C1260.96 51 1256.13 52.1589 1252.56 54.2218C1249 56.2847 1247 59.0826 1247 62V62Z" fill="#CCCCCC"/>
<path d="M783.264 76.5405L788.927 60.2905C789.336 59.1173 787.969 58 786.124 58H739.072L737.974 54.4992C737.7 53.6266 736.523 53 735.157 53H722.875C721.287 53 720 53.8395 720 54.875V56.125C720 57.1605 721.287 58 722.875 58H731.246L739.662 84.8309C737.648 85.5859 736.292 87.0017 736.292 88.625C736.292 91.0412 739.295 93 743 93C746.705 93 749.708 91.0412 749.708 88.625C749.708 87.4005 748.936 86.2941 747.693 85.5H772.807C771.564 86.2941 770.792 87.4005 770.792 88.625C770.792 91.0412 773.795 93 777.5 93C781.205 93 784.208 91.0412 784.208 88.625C784.208 86.8928 782.664 85.3959 780.425 84.6871L781.086 82.7905C781.495 81.6173 780.128 80.5 778.283 80.5H746.129L745.345 78H780.461C781.803 78 782.967 77.3942 783.264 76.5405Z" fill="#CCCCCC"/>
<rect x="71" y="34" width="271" height="70" rx="10" fill="#FDF1E7"/>
<path d="M225.757 61.899V78.579H223.021V71.283H215.173V78.579H212.437V61.899H215.173V69.051H223.021V61.899H225.757ZM235.094 78.795C233.846 78.795 232.718 78.515 231.71 77.955C230.702 77.379 229.91 76.579 229.334 75.555C228.758 74.515 228.47 73.315 228.47 71.955C228.47 70.611 228.766 69.419 229.358 68.379C229.95 67.339 230.758 66.539 231.782 65.979C232.806 65.419 233.95 65.139 235.214 65.139C236.478 65.139 237.622 65.419 238.646 65.979C239.67 66.539 240.478 67.339 241.07 68.379C241.662 69.419 241.958 70.611 241.958 71.955C241.958 73.299 241.654 74.491 241.046 75.531C240.438 76.571 239.606 77.379 238.55 77.955C237.51 78.515 236.358 78.795 235.094 78.795ZM235.094 76.419C235.798 76.419 236.454 76.251 237.062 75.915C237.686 75.579 238.19 75.075 238.574 74.403C238.958 73.731 239.15 72.915 239.15 71.955C239.15 70.995 238.966 70.187 238.598 69.531C238.23 68.859 237.742 68.355 237.134 68.019C236.526 67.683 235.87 67.515 235.166 67.515C234.462 67.515 233.806 67.683 233.198 68.019C232.606 68.355 232.134 68.859 231.782 69.531C231.43 70.187 231.254 70.995 231.254 71.955C231.254 73.379 231.614 74.483 232.334 75.267C233.07 76.035 233.99 76.419 235.094 76.419ZM260.671 65.139C261.711 65.139 262.639 65.355 263.455 65.787C264.287 66.219 264.935 66.859 265.399 67.707C265.879 68.555 266.119 69.579 266.119 70.779V78.579H263.407V71.187C263.407 70.003 263.111 69.099 262.519 68.475C261.927 67.835 261.119 67.515 260.095 67.515C259.071 67.515 258.255 67.835 257.647 68.475C257.055 69.099 256.759 70.003 256.759 71.187V78.579H254.047V71.187C254.047 70.003 253.751 69.099 253.159 68.475C252.567 67.835 251.759 67.515 250.735 67.515C249.711 67.515 248.895 67.835 248.287 68.475C247.695 69.099 247.399 70.003 247.399 71.187V78.579H244.663V65.355H247.399V66.867C247.847 66.323 248.415 65.899 249.103 65.595C249.791 65.291 250.527 65.139 251.311 65.139C252.367 65.139 253.311 65.363 254.143 65.811C254.975 66.259 255.615 66.907 256.063 67.755C256.463 66.955 257.087 66.323 257.935 65.859C258.783 65.379 259.695 65.139 260.671 65.139ZM281.721 71.643C281.721 72.139 281.689 72.587 281.625 72.987H271.521C271.601 74.043 271.993 74.891 272.697 75.531C273.401 76.171 274.265 76.491 275.289 76.491C276.761 76.491 277.801 75.875 278.409 74.643H281.361C280.961 75.859 280.233 76.859 279.177 77.643C278.137 78.411 276.841 78.795 275.289 78.795C274.025 78.795 272.889 78.515 271.881 77.955C270.889 77.379 270.105 76.579 269.529 75.555C268.969 74.515 268.689 73.315 268.689 71.955C268.689 70.595 268.961 69.403 269.505 68.379C270.065 67.339 270.841 66.539 271.833 65.979C272.841 65.419 273.993 65.139 275.289 65.139C276.537 65.139 277.649 65.411 278.625 65.955C279.601 66.499 280.361 67.267 280.905 68.259C281.449 69.235 281.721 70.363 281.721 71.643ZM278.865 70.779C278.849 69.771 278.489 68.963 277.785 68.355C277.081 67.747 276.209 67.443 275.169 67.443C274.225 67.443 273.417 67.747 272.745 68.355C272.073 68.947 271.673 69.755 271.545 70.779H278.865Z" fill="#EC6814"/>
<path d="M851.32 70.624C851.32 68.992 851.696 67.528 852.448 66.232C853.216 64.936 854.248 63.928 855.544 63.208C856.856 62.472 858.288 62.104 859.84 62.104C861.616 62.104 863.192 62.544 864.568 63.424C865.96 64.288 866.968 65.52 867.592 67.12H864.304C863.872 66.24 863.272 65.584 862.504 65.152C861.736 64.72 860.848 64.504 859.84 64.504C858.736 64.504 857.752 64.752 856.888 65.248C856.024 65.744 855.344 66.456 854.848 67.384C854.368 68.312 854.128 69.392 854.128 70.624C854.128 71.856 854.368 72.936 854.848 73.864C855.344 74.792 856.024 75.512 856.888 76.024C857.752 76.52 858.736 76.768 859.84 76.768C860.848 76.768 861.736 76.552 862.504 76.12C863.272 75.688 863.872 75.032 864.304 74.152H867.592C866.968 75.752 865.96 76.984 864.568 77.848C863.192 78.712 861.616 79.144 859.84 79.144C858.272 79.144 856.84 78.784 855.544 78.064C854.248 77.328 853.216 76.312 852.448 75.016C851.696 73.72 851.32 72.256 851.32 70.624ZM869.883 72.328C869.883 71 870.155 69.824 870.699 68.8C871.259 67.776 872.011 66.984 872.955 66.424C873.915 65.848 874.971 65.56 876.123 65.56C877.163 65.56 878.067 65.768 878.835 66.184C879.619 66.584 880.243 67.088 880.707 67.696V65.776H883.467V79H880.707V77.032C880.243 77.656 879.611 78.176 878.811 78.592C878.011 79.008 877.099 79.216 876.075 79.216C874.939 79.216 873.899 78.928 872.955 78.352C872.011 77.76 871.259 76.944 870.699 75.904C870.155 74.848 869.883 73.656 869.883 72.328ZM880.707 72.376C880.707 71.464 880.515 70.672 880.131 70C879.763 69.328 879.275 68.816 878.667 68.464C878.059 68.112 877.403 67.936 876.699 67.936C875.995 67.936 875.339 68.112 874.731 68.464C874.123 68.8 873.627 69.304 873.243 69.976C872.875 70.632 872.691 71.416 872.691 72.328C872.691 73.24 872.875 74.04 873.243 74.728C873.627 75.416 874.123 75.944 874.731 76.312C875.355 76.664 876.011 76.84 876.699 76.84C877.403 76.84 878.059 76.664 878.667 76.312C879.275 75.96 879.763 75.448 880.131 74.776C880.515 74.088 880.707 73.288 880.707 72.376ZM889.797 67.696C890.197 67.024 890.725 66.504 891.381 66.136C892.053 65.752 892.845 65.56 893.757 65.56V68.392H893.061C891.989 68.392 891.173 68.664 890.613 69.208C890.069 69.752 889.797 70.696 889.797 72.04V79H887.061V65.776H889.797V67.696ZM899.464 68.008V75.328C899.464 75.824 899.576 76.184 899.8 76.408C900.04 76.616 900.44 76.72 901 76.72H902.68V79H900.52C899.288 79 898.344 78.712 897.688 78.136C897.032 77.56 896.704 76.624 896.704 75.328V68.008H895.144V65.776H896.704V62.488H899.464V65.776H902.68V68.008H899.464Z" fill="#CCCCCC"/>
<path d="M1312.67 76.792H1318.31V79H1309.93V62.32H1312.67V76.792ZM1326.33 79.216C1325.08 79.216 1323.96 78.936 1322.95 78.376C1321.94 77.8 1321.15 77 1320.57 75.976C1320 74.936 1319.71 73.736 1319.71 72.376C1319.71 71.032 1320 69.84 1320.6 68.8C1321.19 67.76 1322 66.96 1323.02 66.4C1324.04 65.84 1325.19 65.56 1326.45 65.56C1327.72 65.56 1328.86 65.84 1329.88 66.4C1330.91 66.96 1331.72 67.76 1332.31 68.8C1332.9 69.84 1333.2 71.032 1333.2 72.376C1333.2 73.72 1332.89 74.912 1332.28 75.952C1331.68 76.992 1330.84 77.8 1329.79 78.376C1328.75 78.936 1327.6 79.216 1326.33 79.216ZM1326.33 76.84C1327.04 76.84 1327.69 76.672 1328.3 76.336C1328.92 76 1329.43 75.496 1329.81 74.824C1330.2 74.152 1330.39 73.336 1330.39 72.376C1330.39 71.416 1330.2 70.608 1329.84 69.952C1329.47 69.28 1328.98 68.776 1328.37 68.44C1327.76 68.104 1327.11 67.936 1326.4 67.936C1325.7 67.936 1325.04 68.104 1324.44 68.44C1323.84 68.776 1323.37 69.28 1323.02 69.952C1322.67 70.608 1322.49 71.416 1322.49 72.376C1322.49 73.8 1322.85 74.904 1323.57 75.688C1324.31 76.456 1325.23 76.84 1326.33 76.84ZM1341.23 65.56C1342.25 65.56 1343.16 65.768 1343.94 66.184C1344.74 66.584 1345.36 67.088 1345.81 67.696V65.776H1348.57V79.216C1348.57 80.432 1348.32 81.512 1347.8 82.456C1347.29 83.416 1346.55 84.168 1345.57 84.712C1344.61 85.256 1343.46 85.528 1342.12 85.528C1340.32 85.528 1338.84 85.104 1337.65 84.256C1336.47 83.424 1335.8 82.288 1335.64 80.848H1338.35C1338.56 81.536 1339 82.088 1339.67 82.504C1340.36 82.936 1341.17 83.152 1342.12 83.152C1343.22 83.152 1344.11 82.816 1344.78 82.144C1345.47 81.472 1345.81 80.496 1345.81 79.216V77.008C1345.35 77.632 1344.72 78.16 1343.92 78.592C1343.13 79.008 1342.24 79.216 1341.23 79.216C1340.08 79.216 1339.02 78.928 1338.06 78.352C1337.12 77.76 1336.36 76.944 1335.8 75.904C1335.26 74.848 1334.99 73.656 1334.99 72.328C1334.99 71 1335.26 69.824 1335.8 68.8C1336.36 67.776 1337.12 66.984 1338.06 66.424C1339.02 65.848 1340.08 65.56 1341.23 65.56ZM1345.81 72.376C1345.81 71.464 1345.62 70.672 1345.24 70C1344.87 69.328 1344.38 68.816 1343.77 68.464C1343.16 68.112 1342.51 67.936 1341.8 67.936C1341.1 67.936 1340.44 68.112 1339.84 68.464C1339.23 68.8 1338.73 69.304 1338.35 69.976C1337.98 70.632 1337.8 71.416 1337.8 72.328C1337.8 73.24 1337.98 74.04 1338.35 74.728C1338.73 75.416 1339.23 75.944 1339.84 76.312C1340.46 76.664 1341.12 76.84 1341.8 76.84C1342.51 76.84 1343.16 76.664 1343.77 76.312C1344.38 75.96 1344.87 75.448 1345.24 74.776C1345.62 74.088 1345.81 73.288 1345.81 72.376ZM1359.77 79.168C1358.22 79.168 1356.79 78.808 1355.48 78.088C1354.18 77.352 1353.15 76.336 1352.38 75.04C1351.63 73.728 1351.25 72.256 1351.25 70.624C1351.25 68.992 1351.63 67.528 1352.38 66.232C1353.15 64.936 1354.18 63.928 1355.48 63.208C1356.79 62.472 1358.22 62.104 1359.77 62.104C1361.34 62.104 1362.77 62.472 1364.07 63.208C1365.38 63.928 1366.41 64.936 1367.17 66.232C1367.92 67.528 1368.29 68.992 1368.29 70.624C1368.29 72.256 1367.92 73.728 1367.17 75.04C1366.41 76.336 1365.38 77.352 1364.07 78.088C1362.77 78.808 1361.34 79.168 1359.77 79.168ZM1359.77 76.792C1360.88 76.792 1361.86 76.544 1362.73 76.048C1363.59 75.536 1364.26 74.816 1364.74 73.888C1365.24 72.944 1365.49 71.856 1365.49 70.624C1365.49 69.392 1365.24 68.312 1364.74 67.384C1364.26 66.456 1363.59 65.744 1362.73 65.248C1361.86 64.752 1360.88 64.504 1359.77 64.504C1358.67 64.504 1357.69 64.752 1356.82 65.248C1355.96 65.744 1355.28 66.456 1354.78 67.384C1354.3 68.312 1354.06 69.392 1354.06 70.624C1354.06 71.856 1354.3 72.944 1354.78 73.888C1355.28 74.816 1355.96 75.536 1356.82 76.048C1357.69 76.544 1358.67 76.792 1359.77 76.792ZM1382.96 65.776V79H1380.23V77.44C1379.79 77.984 1379.23 78.416 1378.52 78.736C1377.83 79.04 1377.1 79.192 1376.31 79.192C1375.27 79.192 1374.34 78.976 1373.51 78.544C1372.69 78.112 1372.04 77.472 1371.56 76.624C1371.1 75.776 1370.87 74.752 1370.87 73.552V65.776H1373.58V73.144C1373.58 74.328 1373.87 75.24 1374.47 75.88C1375.06 76.504 1375.87 76.816 1376.89 76.816C1377.91 76.816 1378.72 76.504 1379.31 75.88C1379.92 75.24 1380.23 74.328 1380.23 73.144V65.776H1382.96ZM1389.76 68.008V75.328C1389.76 75.824 1389.88 76.184 1390.1 76.408C1390.34 76.616 1390.74 76.72 1391.3 76.72H1392.98V79H1390.82C1389.59 79 1388.64 78.712 1387.99 78.136C1387.33 77.56 1387 76.624 1387 75.328V68.008H1385.44V65.776H1387V62.488H1389.76V65.776H1392.98V68.008H1389.76Z" fill="#CCCCCC"/>
<path d="M156.006 66.8863L130.146 50.9421C129.96 50.827 129.738 50.7357 129.495 50.6734C129.252 50.6111 128.991 50.579 128.727 50.579C128.463 50.579 128.202 50.6111 127.959 50.6734C127.715 50.7357 127.494 50.827 127.308 50.9421L101.448 66.8863C100.694 67.3511 100.267 67.9825 100.267 68.6411C100.267 70.0085 102.069 71.1202 104.285 71.1202H107.01V82.4973C107.01 83.1829 107.908 83.7369 109.019 83.7369H124.709V75.0598H131.741V83.7369H148.435C149.546 83.7369 150.444 83.1829 150.444 82.4973V71.1202H153.168C154.236 71.1202 155.259 70.8607 156.012 70.392C157.576 69.4235 157.576 67.8547 156.006 66.8863V66.8863Z" fill="#FF9A62"/>
<g filter="url(#filter4_d_100_478)">
<rect x="56" y="189" width="321" height="74" rx="10" fill="white"/>
</g>
<g filter="url(#filter5_d_100_478)">
<rect x="391" y="189" width="321" height="74" rx="10" fill="white"/>
</g>
<g filter="url(#filter6_d_100_478)">
<rect x="731" y="189" width="321" height="74" rx="10" fill="white"/>
</g>
<g filter="url(#filter7_d_100_478)">
<rect x="1071" y="189" width="321" height="74" rx="10" fill="white"/>
</g>
<path d="M235.314 200C234.403 201.481 232.839 202.749 230.824 203.642C228.809 204.535 226.435 205.013 224.004 205.013C221.573 205.013 219.199 204.535 217.184 203.642C215.169 202.749 213.605 201.481 212.694 200L185 207.713L192.789 219.78L201.352 217.396V242H246.96V217.485L255.211 219.785L263 207.718L235.314 200Z" fill="#CCCCCC"/>
<path d="M578.314 200C577.403 201.481 575.839 202.749 573.824 203.642C571.809 204.535 569.435 205.013 567.004 205.013C564.573 205.013 562.199 204.535 560.184 203.642C558.169 202.749 556.605 201.481 555.694 200L528 207.713L535.789 219.78L544.352 217.396V242H589.96V217.485L598.211 219.785L606 207.718L578.314 200Z" fill="#CCCCCC"/>
<path d="M906.314 200C905.403 201.481 903.839 202.749 901.824 203.642C899.809 204.535 897.435 205.013 895.004 205.013C892.573 205.013 890.199 204.535 888.184 203.642C886.169 202.749 884.605 201.481 883.694 200L856 207.713L863.789 219.78L872.352 217.396V242H917.96V217.485L926.211 219.785L934 207.718L906.314 200Z" fill="#CCCCCC"/>
<path d="M1290.31 205C1289.4 206.481 1287.84 207.749 1285.82 208.642C1283.81 209.535 1281.43 210.013 1279 210.013C1276.57 210.013 1274.2 209.535 1272.18 208.642C1270.17 207.749 1268.61 206.481 1267.69 205L1240 212.713L1247.79 224.78L1256.35 222.396V247H1301.96V222.485L1310.21 224.785L1318 212.718L1290.31 205Z" fill="#CCCCCC"/>
</g>
<defs>
<filter id="filter0_d_100_478" x="67" y="362" width="359" height="386" filterUnits="userSpaceOnUse" color-interpolation-filters="sRGB">
<feFlood flood-opacity="0" result="BackgroundImageFix"/>
<feColorMatrix in="SourceAlpha" type="matrix" values="0 0 0 0 0 0 0 0 0 0 0 0 0 0 0 0 0 0 127 0" result="hardAlpha"/>
<feOffset dy="4"/>
<feGaussianBlur stdDeviation="2"/>
<feComposite in2="hardAlpha" operator="out"/>
<feColorMatrix type="matrix" values="0 0 0 0 0 0 0 0 0 0 0 0 0 0 0 0 0 0 0.25 0"/>
<feBlend mode="normal" in2="BackgroundImageFix" result="effect1_dropShadow_100_478"/>
<feBlend mode="normal" in="SourceGraphic" in2="effect1_dropShadow_100_478" result="shape"/>
</filter>
<filter id="filter1_d_100_478" x="984" y="362" width="359" height="386" filterUnits="userSpaceOnUse" color-interpolation-filters="sRGB">
<feFlood flood-opacity="0" result="BackgroundImageFix"/>
<feColorMatrix in="SourceAlpha" type="matrix" values="0 0 0 0 0 0 0 0 0 0 0 0 0 0 0 0 0 0 127 0" result="hardAlpha"/>
<feOffset dy="4"/>
<feGaussianBlur stdDeviation="2"/>
<feComposite in2="hardAlpha" operator="out"/>
<feColorMatrix type="matrix" values="0 0 0 0 0 0 0 0 0 0 0 0 0 0 0 0 0 0 0.25 0"/>
<feBlend mode="normal" in2="BackgroundImageFix" result="effect1_dropShadow_100_478"/>
<feBlend mode="normal" in="SourceGraphic" in2="effect1_dropShadow_100_478" result="shape"/>
</filter>
<filter id="filter2_d_100_478" x="508" y="362" width="367" height="386" filterUnits="userSpaceOnUse" color-interpolation-filters="sRGB">
<feFlood flood-opacity="0" result="BackgroundImageFix"/>
<feColorMatrix in="SourceAlpha" type="matrix" values="0 0 0 0 0 0 0 0 0 0 0 0 0 0 0 0 0 0 127 0" result="hardAlpha"/>
<feOffset dy="4"/>
<feGaussianBlur stdDeviation="2"/>
<feComposite in2="hardAlpha" operator="out"/>
<feColorMatrix type="matrix" values="0 0 0 0 0 0 0 0 0 0 0 0 0 0 0 0 0 0 0.25 0"/>
<feBlend mode="normal" in2="BackgroundImageFix" result="effect1_dropShadow_100_478"/>
<feBlend mode="normal" in="SourceGraphic" in2="effect1_dropShadow_100_478" result="shape"/>
</filter>
<filter id="filter3_d_100_478" x="-8" y="0" width="1464" height="154" filterUnits="userSpaceOnUse" color-interpolation-filters="sRGB">
<feFlood flood-opacity="0" result="BackgroundImageFix"/>
<feColorMatrix in="SourceAlpha" type="matrix" values="0 0 0 0 0 0 0 0 0 0 0 0 0 0 0 0 0 0 127 0" result="hardAlpha"/>
<feOffset dy="4"/>
<feGaussianBlur stdDeviation="2"/>
<feComposite in2="hardAlpha" operator="out"/>
<feColorMatrix type="matrix" values="0 0 0 0 0 0 0 0 0 0 0 0 0 0 0 0 0 0 0.25 0"/>
<feBlend mode="normal" in2="BackgroundImageFix" result="effect1_dropShadow_100_478"/>
<feBlend mode="normal" in="SourceGraphic" in2="effect1_dropShadow_100_478" result="shape"/>
</filter>
<filter id="filter4_d_100_478" x="52" y="189" width="329" height="82" filterUnits="userSpaceOnUse" color-interpolation-filters="sRGB">
<feFlood flood-opacity="0" result="BackgroundImageFix"/>
<feColorMatrix in="SourceAlpha" type="matrix" values="0 0 0 0 0 0 0 0 0 0 0 0 0 0 0 0 0 0 127 0" result="hardAlpha"/>
<feOffset dy="4"/>
<feGaussianBlur stdDeviation="2"/>
<feComposite in2="hardAlpha" operator="out"/>
<feColorMatrix type="matrix" values="0 0 0 0 0 0 0 0 0 0 0 0 0 0 0 0 0 0 0.25 0"/>
<feBlend mode="normal" in2="BackgroundImageFix" result="effect1_dropShadow_100_478"/>
<feBlend mode="normal" in="SourceGraphic" in2="effect1_dropShadow_100_478" result="shape"/>
</filter>
<filter id="filter5_d_100_478" x="387" y="189" width="329" height="82" filterUnits="userSpaceOnUse" color-interpolation-filters="sRGB">
<feFlood flood-opacity="0" result="BackgroundImageFix"/>
<feColorMatrix in="SourceAlpha" type="matrix" values="0 0 0 0 0 0 0 0 0 0 0 0 0 0 0 0 0 0 127 0" result="hardAlpha"/>
<feOffset dy="4"/>
<feGaussianBlur stdDeviation="2"/>
<feComposite in2="hardAlpha" operator="out"/>
<feColorMatrix type="matrix" values="0 0 0 0 0 0 0 0 0 0 0 0 0 0 0 0 0 0 0.25 0"/>
<feBlend mode="normal" in2="BackgroundImageFix" result="effect1_dropShadow_100_478"/>
<feBlend mode="normal" in="SourceGraphic" in2="effect1_dropShadow_100_478" result="shape"/>
</filter>
<filter id="filter6_d_100_478" x="727" y="189" width="329" height="82" filterUnits="userSpaceOnUse" color-interpolation-filters="sRGB">
<feFlood flood-opacity="0" result="BackgroundImageFix"/>
<feColorMatrix in="SourceAlpha" type="matrix" values="0 0 0 0 0 0 0 0 0 0 0 0 0 0 0 0 0 0 127 0" result="hardAlpha"/>
<feOffset dy="4"/>
<feGaussianBlur stdDeviation="2"/>
<feComposite in2="hardAlpha" operator="out"/>
<feColorMatrix type="matrix" values="0 0 0 0 0 0 0 0 0 0 0 0 0 0 0 0 0 0 0.25 0"/>
<feBlend mode="normal" in2="BackgroundImageFix" result="effect1_dropShadow_100_478"/>
<feBlend mode="normal" in="SourceGraphic" in2="effect1_dropShadow_100_478" result="shape"/>
</filter>
<filter id="filter7_d_100_478" x="1067" y="189" width="329" height="82" filterUnits="userSpaceOnUse" color-interpolation-filters="sRGB">
<feFlood flood-opacity="0" result="BackgroundImageFix"/>
<feColorMatrix in="SourceAlpha" type="matrix" values="0 0 0 0 0 0 0 0 0 0 0 0 0 0 0 0 0 0 127 0" result="hardAlpha"/>
<feOffset dy="4"/>
<feGaussianBlur stdDeviation="2"/>
<feComposite in2="hardAlpha" operator="out"/>
<feColorMatrix type="matrix" values="0 0 0 0 0 0 0 0 0 0 0 0 0 0 0 0 0 0 0.25 0"/>
<feBlend mode="normal" in2="BackgroundImageFix" result="effect1_dropShadow_100_478"/>
<feBlend mode="normal" in="SourceGraphic" in2="effect1_dropShadow_100_478" result="shape"/>
</filter>
<clipPath id="clip0_100_478">
<rect width="1440" height="1024" fill="white"/>
</clipPath>
</defs>
</svg>
