<svg width="375" height="667" viewBox="0 0 375 667" fill="none" xmlns="http://www.w3.org/2000/svg">
<rect width="375" height="667" fill="white"/>
<g filter="url(#filter0_i_98_430)">
<rect x="16" y="21" width="344" height="630" rx="10" fill="white"/>
</g>
<rect x="41" y="559" width="296" height="38" rx="10" fill="#F26B27"/>
<path d="M172.306 583.105C171.606 583.105 170.976 582.985 170.416 582.745C169.856 582.495 169.416 582.145 169.096 581.695C168.776 581.245 168.616 580.72 168.616 580.12H170.446C170.486 580.57 170.661 580.94 170.971 581.23C171.291 581.52 171.736 581.665 172.306 581.665C172.896 581.665 173.356 581.525 173.686 581.245C174.016 580.955 174.181 580.585 174.181 580.135C174.181 579.785 174.076 579.5 173.866 579.28C173.666 579.06 173.411 578.89 173.101 578.77C172.801 578.65 172.381 578.52 171.841 578.38C171.161 578.2 170.606 578.02 170.176 577.84C169.756 577.65 169.396 577.36 169.096 576.97C168.796 576.58 168.646 576.06 168.646 575.41C168.646 574.81 168.796 574.285 169.096 573.835C169.396 573.385 169.816 573.04 170.356 572.8C170.896 572.56 171.521 572.44 172.231 572.44C173.241 572.44 174.066 572.695 174.706 573.205C175.356 573.705 175.716 574.395 175.786 575.275H173.896C173.866 574.895 173.686 574.57 173.356 574.3C173.026 574.03 172.591 573.895 172.051 573.895C171.561 573.895 171.161 574.02 170.851 574.27C170.541 574.52 170.386 574.88 170.386 575.35C170.386 575.67 170.481 575.935 170.671 576.145C170.871 576.345 171.121 576.505 171.421 576.625C171.721 576.745 172.131 576.875 172.651 577.015C173.341 577.205 173.901 577.395 174.331 577.585C174.771 577.775 175.141 578.07 175.441 578.47C175.751 578.86 175.906 579.385 175.906 580.045C175.906 580.575 175.761 581.075 175.471 581.545C175.191 582.015 174.776 582.395 174.226 582.685C173.686 582.965 173.046 583.105 172.306 583.105ZM178.794 573.64C178.484 573.64 178.224 573.535 178.014 573.325C177.804 573.115 177.699 572.855 177.699 572.545C177.699 572.235 177.804 571.975 178.014 571.765C178.224 571.555 178.484 571.45 178.794 571.45C179.094 571.45 179.349 571.555 179.559 571.765C179.769 571.975 179.874 572.235 179.874 572.545C179.874 572.855 179.769 573.115 179.559 573.325C179.349 573.535 179.094 573.64 178.794 573.64ZM179.634 574.735V583H177.924V574.735H179.634ZM185.209 574.6C185.849 574.6 186.414 574.73 186.904 574.99C187.404 575.24 187.794 575.555 188.074 575.935V574.735H189.799V583.135C189.799 583.895 189.639 584.57 189.319 585.16C188.999 585.76 188.534 586.23 187.924 586.57C187.324 586.91 186.604 587.08 185.764 587.08C184.644 587.08 183.714 586.815 182.974 586.285C182.234 585.765 181.814 585.055 181.714 584.155H183.409C183.539 584.585 183.814 584.93 184.234 585.19C184.664 585.46 185.174 585.595 185.764 585.595C186.454 585.595 187.009 585.385 187.429 584.965C187.859 584.545 188.074 583.935 188.074 583.135V581.755C187.784 582.145 187.389 582.475 186.889 582.745C186.399 583.005 185.839 583.135 185.209 583.135C184.489 583.135 183.829 582.955 183.229 582.595C182.639 582.225 182.169 581.715 181.819 581.065C181.479 580.405 181.309 579.66 181.309 578.83C181.309 578 181.479 577.265 181.819 576.625C182.169 575.985 182.639 575.49 183.229 575.14C183.829 574.78 184.489 574.6 185.209 574.6ZM188.074 578.86C188.074 578.29 187.954 577.795 187.714 577.375C187.484 576.955 187.179 576.635 186.799 576.415C186.419 576.195 186.009 576.085 185.569 576.085C185.129 576.085 184.719 576.195 184.339 576.415C183.959 576.625 183.649 576.94 183.409 577.36C183.179 577.77 183.064 578.26 183.064 578.83C183.064 579.4 183.179 579.9 183.409 580.33C183.649 580.76 183.959 581.09 184.339 581.32C184.729 581.54 185.139 581.65 185.569 581.65C186.009 581.65 186.419 581.54 186.799 581.32C187.179 581.1 187.484 580.78 187.714 580.36C187.954 579.93 188.074 579.43 188.074 578.86ZM196.215 574.6C196.865 574.6 197.445 574.735 197.955 575.005C198.475 575.275 198.88 575.675 199.17 576.205C199.46 576.735 199.605 577.375 199.605 578.125V583H197.91V578.38C197.91 577.64 197.725 577.075 197.355 576.685C196.985 576.285 196.48 576.085 195.84 576.085C195.2 576.085 194.69 576.285 194.31 576.685C193.94 577.075 193.755 577.64 193.755 578.38V583H192.045V574.735H193.755V575.68C194.035 575.34 194.39 575.075 194.82 574.885C195.26 574.695 195.725 574.6 196.215 574.6ZM207.393 572.575V583H205.683V572.575H207.393ZM213.808 574.6C214.458 574.6 215.038 574.735 215.548 575.005C216.068 575.275 216.473 575.675 216.763 576.205C217.053 576.735 217.198 577.375 217.198 578.125V583H215.503V578.38C215.503 577.64 215.318 577.075 214.948 576.685C214.578 576.285 214.073 576.085 213.433 576.085C212.793 576.085 212.283 576.285 211.903 576.685C211.533 577.075 211.348 577.64 211.348 578.38V583H209.638V574.735H211.348V575.68C211.628 575.34 211.983 575.075 212.413 574.885C212.853 574.695 213.318 574.6 213.808 574.6Z" fill="white"/>
<g filter="url(#filter1_b_98_430)">
<rect x="43" y="421" width="302" height="38" rx="10" fill="#F8F8F8"/>
</g>
<rect x="43" y="497" width="302" height="38" rx="10" fill="#F8F8F8"/>
<path d="M39.457 402.161V404.813H42.577V406.022H39.457V408.791H42.967V410H37.975V400.952H42.967V402.161H39.457ZM53.4634 402.72C54.0267 402.72 54.5294 402.837 54.9714 403.071C55.422 403.305 55.7731 403.652 56.0244 404.111C56.2844 404.57 56.4144 405.125 56.4144 405.775V410H54.9454V405.996C54.9454 405.355 54.7851 404.865 54.4644 404.527C54.1437 404.18 53.7061 404.007 53.1514 404.007C52.5967 404.007 52.1547 404.18 51.8254 404.527C51.5047 404.865 51.3444 405.355 51.3444 405.996V410H49.8754V405.996C49.8754 405.355 49.715 404.865 49.3944 404.527C49.0737 404.18 48.636 404.007 48.0814 404.007C47.5267 404.007 47.0847 404.18 46.7554 404.527C46.4347 404.865 46.2744 405.355 46.2744 405.996V410H44.7924V402.837H46.2744V403.656C46.517 403.361 46.8247 403.132 47.1974 402.967C47.57 402.802 47.9687 402.72 48.3934 402.72C48.9654 402.72 49.4767 402.841 49.9274 403.084C50.378 403.327 50.7247 403.678 50.9674 404.137C51.184 403.704 51.522 403.361 51.9814 403.11C52.4407 402.85 52.9347 402.72 53.4634 402.72ZM57.8062 406.386C57.8062 405.667 57.9535 405.03 58.2482 404.475C58.5515 403.92 58.9589 403.491 59.4702 403.188C59.9902 402.876 60.5622 402.72 61.1862 402.72C61.7495 402.72 62.2392 402.833 62.6552 403.058C63.0799 403.275 63.4179 403.548 63.6692 403.877V402.837H65.1642V410H63.6692V408.934C63.4179 409.272 63.0755 409.554 62.6422 409.779C62.2089 410.004 61.7149 410.117 61.1602 410.117C60.5449 410.117 59.9815 409.961 59.4702 409.649C58.9589 409.328 58.5515 408.886 58.2482 408.323C57.9535 407.751 57.8062 407.105 57.8062 406.386ZM63.6692 406.412C63.6692 405.918 63.5652 405.489 63.3572 405.125C63.1579 404.761 62.8935 404.484 62.5642 404.293C62.2349 404.102 61.8795 404.007 61.4982 404.007C61.1169 404.007 60.7615 404.102 60.4322 404.293C60.1029 404.475 59.8342 404.748 59.6262 405.112C59.4269 405.467 59.3272 405.892 59.3272 406.386C59.3272 406.88 59.4269 407.313 59.6262 407.686C59.8342 408.059 60.1029 408.345 60.4322 408.544C60.7702 408.735 61.1255 408.83 61.4982 408.83C61.8795 408.83 62.2349 408.735 62.5642 408.544C62.8935 408.353 63.1579 408.076 63.3572 407.712C63.5652 407.339 63.6692 406.906 63.6692 406.412ZM67.8647 401.888C67.5961 401.888 67.3707 401.797 67.1887 401.615C67.0067 401.433 66.9157 401.208 66.9157 400.939C66.9157 400.67 67.0067 400.445 67.1887 400.263C67.3707 400.081 67.5961 399.99 67.8647 399.99C68.1247 399.99 68.3457 400.081 68.5277 400.263C68.7097 400.445 68.8007 400.67 68.8007 400.939C68.8007 401.208 68.7097 401.433 68.5277 401.615C68.3457 401.797 68.1247 401.888 67.8647 401.888ZM68.5927 402.837V410H67.1107V402.837H68.5927ZM72.0205 400.38V410H70.5385V400.38H72.0205ZM76.8492 406.386C76.8492 405.667 76.9965 405.03 77.2912 404.475C77.5945 403.92 78.0018 403.491 78.5132 403.188C79.0332 402.876 79.6052 402.72 80.2292 402.72C80.7925 402.72 81.2822 402.833 81.6982 403.058C82.1228 403.275 82.4608 403.548 82.7122 403.877V402.837H84.2072V410H82.7122V408.934C82.4608 409.272 82.1185 409.554 81.6852 409.779C81.2518 410.004 80.7578 410.117 80.2032 410.117C79.5878 410.117 79.0245 409.961 78.5132 409.649C78.0018 409.328 77.5945 408.886 77.2912 408.323C76.9965 407.751 76.8492 407.105 76.8492 406.386ZM82.7122 406.412C82.7122 405.918 82.6082 405.489 82.4002 405.125C82.2008 404.761 81.9365 404.484 81.6072 404.293C81.2778 404.102 80.9225 404.007 80.5412 404.007C80.1598 404.007 79.8045 404.102 79.4752 404.293C79.1458 404.475 78.8772 404.748 78.6692 405.112C78.4698 405.467 78.3702 405.892 78.3702 406.386C78.3702 406.88 78.4698 407.313 78.6692 407.686C78.8772 408.059 79.1458 408.345 79.4752 408.544C79.8132 408.735 80.1685 408.83 80.5412 408.83C80.9225 408.83 81.2778 408.735 81.6072 408.544C81.9365 408.353 82.2008 408.076 82.4002 407.712C82.6082 407.339 82.7122 406.906 82.7122 406.412ZM85.6597 406.386C85.6597 405.667 85.807 405.03 86.1017 404.475C86.405 403.92 86.8124 403.491 87.3237 403.188C87.8437 402.876 88.42 402.72 89.0527 402.72C89.5207 402.72 89.98 402.824 90.4307 403.032C90.89 403.231 91.254 403.5 91.5227 403.838V400.38H93.0177V410H91.5227V408.921C91.28 409.268 90.942 409.554 90.5087 409.779C90.084 410.004 89.5944 410.117 89.0397 410.117C88.4157 410.117 87.8437 409.961 87.3237 409.649C86.8124 409.328 86.405 408.886 86.1017 408.323C85.807 407.751 85.6597 407.105 85.6597 406.386ZM91.5227 406.412C91.5227 405.918 91.4187 405.489 91.2107 405.125C91.0114 404.761 90.747 404.484 90.4177 404.293C90.0884 404.102 89.733 404.007 89.3517 404.007C88.9704 404.007 88.615 404.102 88.2857 404.293C87.9564 404.475 87.6877 404.748 87.4797 405.112C87.2804 405.467 87.1807 405.892 87.1807 406.386C87.1807 406.88 87.2804 407.313 87.4797 407.686C87.6877 408.059 87.9564 408.345 88.2857 408.544C88.6237 408.735 88.979 408.83 89.3517 408.83C89.733 408.83 90.0884 408.735 90.4177 408.544C90.747 408.353 91.0114 408.076 91.2107 407.712C91.4187 407.339 91.5227 406.906 91.5227 406.412ZM96.4463 403.877C96.6629 403.513 96.9489 403.231 97.3043 403.032C97.6683 402.824 98.0973 402.72 98.5913 402.72V404.254H98.2143C97.6336 404.254 97.1916 404.401 96.8883 404.696C96.5936 404.991 96.4463 405.502 96.4463 406.23V410H94.9643V402.837H96.4463V403.877ZM106.519 406.243C106.519 406.512 106.501 406.754 106.467 406.971H100.994C101.037 407.543 101.249 408.002 101.631 408.349C102.012 408.696 102.48 408.869 103.035 408.869C103.832 408.869 104.395 408.535 104.725 407.868H106.324C106.107 408.527 105.713 409.068 105.141 409.493C104.577 409.909 103.875 410.117 103.035 410.117C102.35 410.117 101.735 409.965 101.189 409.662C100.651 409.35 100.227 408.917 99.9145 408.362C99.6112 407.799 99.4595 407.149 99.4595 406.412C99.4595 405.675 99.6068 405.03 99.9015 404.475C100.205 403.912 100.625 403.478 101.163 403.175C101.709 402.872 102.333 402.72 103.035 402.72C103.711 402.72 104.313 402.867 104.842 403.162C105.37 403.457 105.782 403.873 106.077 404.41C106.371 404.939 106.519 405.55 106.519 406.243ZM104.972 405.775C104.963 405.229 104.768 404.791 104.387 404.462C104.005 404.133 103.533 403.968 102.97 403.968C102.458 403.968 102.021 404.133 101.657 404.462C101.293 404.783 101.076 405.22 101.007 405.775H104.972ZM110.577 410.117C110.014 410.117 109.507 410.017 109.056 409.818C108.614 409.61 108.263 409.333 108.003 408.986C107.743 408.631 107.604 408.236 107.587 407.803H109.121C109.147 408.106 109.29 408.362 109.55 408.57C109.819 408.769 110.152 408.869 110.551 408.869C110.967 408.869 111.288 408.791 111.513 408.635C111.747 408.47 111.864 408.262 111.864 408.011C111.864 407.742 111.734 407.543 111.474 407.413C111.223 407.283 110.82 407.14 110.265 406.984C109.728 406.837 109.29 406.694 108.952 406.555C108.614 406.416 108.319 406.204 108.068 405.918C107.825 405.632 107.704 405.255 107.704 404.787C107.704 404.406 107.817 404.059 108.042 403.747C108.267 403.426 108.588 403.175 109.004 402.993C109.429 402.811 109.914 402.72 110.46 402.72C111.275 402.72 111.929 402.928 112.423 403.344C112.926 403.751 113.194 404.31 113.229 405.021H111.747C111.721 404.7 111.591 404.445 111.357 404.254C111.123 404.063 110.807 403.968 110.408 403.968C110.018 403.968 109.719 404.042 109.511 404.189C109.303 404.336 109.199 404.531 109.199 404.774C109.199 404.965 109.268 405.125 109.407 405.255C109.546 405.385 109.715 405.489 109.914 405.567C110.113 405.636 110.408 405.727 110.798 405.84C111.318 405.979 111.743 406.122 112.072 406.269C112.41 406.408 112.7 406.616 112.943 406.893C113.186 407.17 113.311 407.539 113.32 407.998C113.32 408.405 113.207 408.769 112.982 409.09C112.757 409.411 112.436 409.662 112.02 409.844C111.613 410.026 111.132 410.117 110.577 410.117ZM117.521 410.117C116.958 410.117 116.451 410.017 116 409.818C115.558 409.61 115.207 409.333 114.947 408.986C114.687 408.631 114.549 408.236 114.531 407.803H116.065C116.091 408.106 116.234 408.362 116.494 408.57C116.763 408.769 117.097 408.869 117.495 408.869C117.911 408.869 118.232 408.791 118.457 408.635C118.691 408.47 118.808 408.262 118.808 408.011C118.808 407.742 118.678 407.543 118.418 407.413C118.167 407.283 117.764 407.14 117.209 406.984C116.672 406.837 116.234 406.694 115.896 406.555C115.558 406.416 115.264 406.204 115.012 405.918C114.77 405.632 114.648 405.255 114.648 404.787C114.648 404.406 114.761 404.059 114.986 403.747C115.212 403.426 115.532 403.175 115.948 402.993C116.373 402.811 116.858 402.72 117.404 402.72C118.219 402.72 118.873 402.928 119.367 403.344C119.87 403.751 120.139 404.31 120.173 405.021H118.691C118.665 404.7 118.535 404.445 118.301 404.254C118.067 404.063 117.751 403.968 117.352 403.968C116.962 403.968 116.663 404.042 116.455 404.189C116.247 404.336 116.143 404.531 116.143 404.774C116.143 404.965 116.213 405.125 116.351 405.255C116.49 405.385 116.659 405.489 116.858 405.567C117.058 405.636 117.352 405.727 117.742 405.84C118.262 405.979 118.687 406.122 119.016 406.269C119.354 406.408 119.645 406.616 119.887 406.893C120.13 407.17 120.256 407.539 120.264 407.998C120.264 408.405 120.152 408.769 119.926 409.09C119.701 409.411 119.38 409.662 118.964 409.844C118.557 410.026 118.076 410.117 117.521 410.117Z" fill="#2F2E41"/>
<path d="M44.293 483.656C44.293 484.115 44.1847 484.549 43.968 484.956C43.7513 485.363 43.4047 485.697 42.928 485.957C42.4513 486.208 41.8403 486.334 41.095 486.334H39.457V490H37.975V480.965H41.095C41.7883 480.965 42.3733 481.086 42.85 481.329C43.3353 481.563 43.695 481.884 43.929 482.291C44.1717 482.698 44.293 483.153 44.293 483.656ZM41.095 485.125C41.6583 485.125 42.0787 484.999 42.356 484.748C42.6333 484.488 42.772 484.124 42.772 483.656C42.772 482.668 42.213 482.174 41.095 482.174H39.457V485.125H41.095ZM45.2124 486.386C45.2124 485.667 45.3598 485.03 45.6544 484.475C45.9578 483.92 46.3651 483.491 46.8764 483.188C47.3964 482.876 47.9684 482.72 48.5924 482.72C49.1558 482.72 49.6454 482.833 50.0614 483.058C50.4861 483.275 50.8241 483.548 51.0754 483.877V482.837H52.5704V490H51.0754V488.934C50.8241 489.272 50.4818 489.554 50.0484 489.779C49.6151 490.004 49.1211 490.117 48.5664 490.117C47.9511 490.117 47.3878 489.961 46.8764 489.649C46.3651 489.328 45.9578 488.886 45.6544 488.323C45.3598 487.751 45.2124 487.105 45.2124 486.386ZM51.0754 486.412C51.0754 485.918 50.9714 485.489 50.7634 485.125C50.5641 484.761 50.2998 484.484 49.9704 484.293C49.6411 484.102 49.2858 484.007 48.9044 484.007C48.5231 484.007 48.1678 484.102 47.8384 484.293C47.5091 484.475 47.2404 484.748 47.0324 485.112C46.8331 485.467 46.7334 485.892 46.7334 486.386C46.7334 486.88 46.8331 487.313 47.0324 487.686C47.2404 488.059 47.5091 488.345 47.8384 488.544C48.1764 488.735 48.5318 488.83 48.9044 488.83C49.2858 488.83 49.6411 488.735 49.9704 488.544C50.2998 488.353 50.5641 488.076 50.7634 487.712C50.9714 487.339 51.0754 486.906 51.0754 486.412ZM57.117 490.117C56.5537 490.117 56.0467 490.017 55.596 489.818C55.154 489.61 54.803 489.333 54.543 488.986C54.283 488.631 54.1443 488.236 54.127 487.803H55.661C55.687 488.106 55.83 488.362 56.09 488.57C56.3587 488.769 56.6923 488.869 57.091 488.869C57.507 488.869 57.8277 488.791 58.053 488.635C58.287 488.47 58.404 488.262 58.404 488.011C58.404 487.742 58.274 487.543 58.014 487.413C57.7627 487.283 57.3597 487.14 56.805 486.984C56.2677 486.837 55.83 486.694 55.492 486.555C55.154 486.416 54.8593 486.204 54.608 485.918C54.3653 485.632 54.244 485.255 54.244 484.787C54.244 484.406 54.3567 484.059 54.582 483.747C54.8073 483.426 55.128 483.175 55.544 482.993C55.9687 482.811 56.454 482.72 57 482.72C57.8147 482.72 58.469 482.928 58.963 483.344C59.4657 483.751 59.7343 484.31 59.769 485.021H58.287C58.261 484.7 58.131 484.445 57.897 484.254C57.663 484.063 57.3467 483.968 56.948 483.968C56.558 483.968 56.259 484.042 56.051 484.189C55.843 484.336 55.739 484.531 55.739 484.774C55.739 484.965 55.8083 485.125 55.947 485.255C56.0857 485.385 56.2547 485.489 56.454 485.567C56.6533 485.636 56.948 485.727 57.338 485.84C57.858 485.979 58.2827 486.122 58.612 486.269C58.95 486.408 59.2403 486.616 59.483 486.893C59.7257 487.17 59.8513 487.539 59.86 487.998C59.86 488.405 59.7473 488.769 59.522 489.09C59.2967 489.411 58.976 489.662 58.56 489.844C58.1527 490.026 57.6717 490.117 57.117 490.117ZM64.0613 490.117C63.498 490.117 62.991 490.017 62.5403 489.818C62.0983 489.61 61.7473 489.333 61.4873 488.986C61.2273 488.631 61.0887 488.236 61.0713 487.803H62.6053C62.6313 488.106 62.7743 488.362 63.0343 488.57C63.303 488.769 63.6367 488.869 64.0353 488.869C64.4513 488.869 64.772 488.791 64.9973 488.635C65.2313 488.47 65.3483 488.262 65.3483 488.011C65.3483 487.742 65.2183 487.543 64.9583 487.413C64.707 487.283 64.304 487.14 63.7493 486.984C63.212 486.837 62.7743 486.694 62.4363 486.555C62.0983 486.416 61.8037 486.204 61.5523 485.918C61.3097 485.632 61.1883 485.255 61.1883 484.787C61.1883 484.406 61.301 484.059 61.5263 483.747C61.7517 483.426 62.0723 483.175 62.4883 482.993C62.913 482.811 63.3983 482.72 63.9443 482.72C64.759 482.72 65.4133 482.928 65.9073 483.344C66.41 483.751 66.6787 484.31 66.7133 485.021H65.2313C65.2053 484.7 65.0753 484.445 64.8413 484.254C64.6073 484.063 64.291 483.968 63.8923 483.968C63.5023 483.968 63.2033 484.042 62.9953 484.189C62.7873 484.336 62.6833 484.531 62.6833 484.774C62.6833 484.965 62.7527 485.125 62.8913 485.255C63.03 485.385 63.199 485.489 63.3983 485.567C63.5977 485.636 63.8923 485.727 64.2823 485.84C64.8023 485.979 65.227 486.122 65.5563 486.269C65.8943 486.408 66.1847 486.616 66.4273 486.893C66.67 487.17 66.7957 487.539 66.8043 487.998C66.8043 488.405 66.6917 488.769 66.4663 489.09C66.241 489.411 65.9203 489.662 65.5043 489.844C65.097 490.026 64.616 490.117 64.0613 490.117ZM78.0257 482.837L75.8027 490H74.2427L72.7997 484.709L71.3567 490H69.7967L67.5607 482.837H69.0687L70.5637 488.596L72.0847 482.837H73.6317L75.0877 488.57L76.5697 482.837H78.0257ZM82.2402 490.117C81.5642 490.117 80.9532 489.965 80.4072 489.662C79.8612 489.35 79.4322 488.917 79.1202 488.362C78.8082 487.799 78.6522 487.149 78.6522 486.412C78.6522 485.684 78.8125 485.038 79.1332 484.475C79.4539 483.912 79.8915 483.478 80.4462 483.175C81.0009 482.872 81.6205 482.72 82.3052 482.72C82.9899 482.72 83.6095 482.872 84.1642 483.175C84.7189 483.478 85.1565 483.912 85.4772 484.475C85.7979 485.038 85.9582 485.684 85.9582 486.412C85.9582 487.14 85.7935 487.786 85.4642 488.349C85.1349 488.912 84.6842 489.35 84.1122 489.662C83.5489 489.965 82.9249 490.117 82.2402 490.117ZM82.2402 488.83C82.6215 488.83 82.9769 488.739 83.3062 488.557C83.6442 488.375 83.9172 488.102 84.1252 487.738C84.3332 487.374 84.4372 486.932 84.4372 486.412C84.4372 485.892 84.3375 485.454 84.1382 485.099C83.9389 484.735 83.6745 484.462 83.3452 484.28C83.0159 484.098 82.6605 484.007 82.2792 484.007C81.8979 484.007 81.5425 484.098 81.2132 484.28C80.8925 484.462 80.6369 484.735 80.4462 485.099C80.2555 485.454 80.1602 485.892 80.1602 486.412C80.1602 487.183 80.3552 487.781 80.7452 488.206C81.1439 488.622 81.6422 488.83 82.2402 488.83ZM88.9052 483.877C89.1219 483.513 89.4079 483.231 89.7632 483.032C90.1272 482.824 90.5562 482.72 91.0502 482.72V484.254H90.6732C90.0926 484.254 89.6506 484.401 89.3472 484.696C89.0526 484.991 88.9052 485.502 88.9052 486.23V490H87.4232V482.837H88.9052V483.877ZM91.9185 486.386C91.9185 485.667 92.0658 485.03 92.3605 484.475C92.6638 483.92 93.0712 483.491 93.5825 483.188C94.1025 482.876 94.6788 482.72 95.3115 482.72C95.7795 482.72 96.2388 482.824 96.6895 483.032C97.1488 483.231 97.5128 483.5 97.7815 483.838V480.38H99.2765V490H97.7815V488.921C97.5388 489.268 97.2008 489.554 96.7675 489.779C96.3428 490.004 95.8532 490.117 95.2985 490.117C94.6745 490.117 94.1025 489.961 93.5825 489.649C93.0712 489.328 92.6638 488.886 92.3605 488.323C92.0658 487.751 91.9185 487.105 91.9185 486.386ZM97.7815 486.412C97.7815 485.918 97.6775 485.489 97.4695 485.125C97.2702 484.761 97.0058 484.484 96.6765 484.293C96.3472 484.102 95.9918 484.007 95.6105 484.007C95.2292 484.007 94.8738 484.102 94.5445 484.293C94.2152 484.475 93.9465 484.748 93.7385 485.112C93.5392 485.467 93.4395 485.892 93.4395 486.386C93.4395 486.88 93.5392 487.313 93.7385 487.686C93.9465 488.059 94.2152 488.345 94.5445 488.544C94.8825 488.735 95.2378 488.83 95.6105 488.83C95.9918 488.83 96.3472 488.735 96.6765 488.544C97.0058 488.353 97.2702 488.076 97.4695 487.712C97.6775 487.339 97.7815 486.906 97.7815 486.412Z" fill="#2F2E41"/>
<g clip-path="url(#clip0_98_430)" filter="url(#filter2_d_98_430)">
<path d="M111.999 143.901C112.591 144.304 113.173 144.714 113.754 145.137C119.891 161.998 123.395 179.864 124.12 197.991C124.21 200.087 124.255 202.181 124.257 204.27C124.309 219.942 122.221 235.534 118.06 250.533C117.841 251.323 117.616 252.109 117.387 252.892C117.223 253.454 117.056 254.022 116.875 254.579C116.682 254.865 116.492 255.146 116.302 255.426C116.289 255.439 116.277 255.46 116.263 255.472C116.187 255.585 116.11 255.699 116.042 255.81C115.713 256.291 115.38 256.769 115.052 257.25L115.329 257.271L116.021 257.319L116.019 257.324C115.786 257.318 115.549 257.31 115.314 257.296C115.229 257.297 115.136 257.299 115.049 257.291C114.971 257.289 114.889 257.284 114.811 257.283C104.821 256.987 94.5972 256.443 85.5061 251.981C75.9906 247.307 67.9189 237.203 68.3291 225.822C68.3868 224.331 68.5939 222.852 68.9467 221.411C69.0939 220.809 69.268 220.217 69.4544 219.627C70.5891 216.014 72.5846 212.795 75.2357 210.303C77.8869 207.811 81.098 206.135 84.5389 205.447C87.9798 204.76 91.5264 205.085 94.8139 206.39C98.1015 207.695 101.011 209.933 103.245 212.873C100.518 201.17 88.8105 195.198 78.2662 191.567C67.7142 187.939 55.8422 184.143 50.4513 173.598C47.4414 167.73 47.369 160.893 49.3329 154.579C49.3927 154.391 49.4555 154.197 49.523 154.006C51.9965 146.578 56.9457 140.442 63.3816 136.826C75.4401 130.306 90.0927 132.606 102.448 138.425C105.754 139.984 108.947 141.815 111.999 143.901Z" fill="#F2F2F2"/>
<path d="M77.4369 219.675C86.915 220.627 95.8612 224.883 102.953 231.816C108.993 237.786 113.45 245.421 115.856 253.921C115.996 254.407 116.123 254.892 116.243 255.38C116.483 254.882 116.715 254.373 116.945 253.869C117.093 253.546 117.244 253.218 117.387 252.892C117.223 253.454 117.056 254.022 116.875 254.579C116.682 254.865 116.492 255.146 116.302 255.426C116.289 255.439 116.277 255.459 116.264 255.472C116.187 255.585 116.111 255.699 116.042 255.81C115.714 256.291 115.38 256.769 115.052 257.25L115.329 257.27L116.022 257.319L116.019 257.324C115.786 257.318 115.549 257.31 115.314 257.296C115.229 257.297 115.136 257.299 115.049 257.291C115.02 257.143 114.984 256.998 114.948 256.852C112.492 245.874 106.481 236.238 98.0257 229.723C89.57 223.208 79.2409 220.256 68.9468 221.411C69.094 220.809 69.2681 220.217 69.4545 219.627C72.1115 219.39 74.7825 219.406 77.4369 219.675Z" fill="white"/>
<path d="M108.928 176.387C112.731 179.498 116.098 183.2 118.921 187.374C120.391 189.599 121.669 191.969 122.738 194.453C123.244 195.605 123.705 196.792 124.121 197.991C124.21 200.087 124.255 202.181 124.257 204.27C123.904 202.691 123.475 201.132 122.97 199.603C122.707 198.763 122.416 197.939 122.106 197.125C118.63 188.009 112.334 180.811 104.908 175.339C96.9506 169.484 87.9796 165.088 78.888 161.82C69.5707 158.454 59.9107 156.349 50.1242 155.551C49.9032 155.531 49.6976 155.419 49.5502 155.238C49.4029 155.057 49.3251 154.821 49.3331 154.579C49.3256 154.369 49.3938 154.163 49.5232 154.006C49.5919 153.933 49.6755 153.878 49.7672 153.846C49.8589 153.814 49.9562 153.806 50.0512 153.823C51.2589 153.921 52.4635 154.026 53.668 154.165C63.69 155.292 73.5448 157.776 83.0054 161.56C92.1381 165.199 101.177 169.918 108.928 176.387Z" fill="white"/>
<path d="M59.2705 125.97C61.1205 125.97 62.6203 124.332 62.6203 122.312C62.6203 120.291 61.1205 118.654 59.2705 118.654C57.4204 118.654 55.9207 120.291 55.9207 122.312C55.9207 124.332 57.4204 125.97 59.2705 125.97Z" fill="#F2F2F2"/>
<path d="M265.061 156.082H113V297.517H265.061V156.082Z" fill="white"/>
<path d="M265.503 298H112.558V155.599H265.503V298ZM113.442 297.035H264.619V156.564H113.442V297.035Z" fill="#3F3D56"/>
<path d="M208.038 183.596H170.023V297.517H208.038V183.596Z" fill="#F26B27"/>
<path d="M208.038 183.596H170.023V297.517H208.038V183.596Z" fill="#F26B27"/>
<path opacity="0.2" d="M113.442 166.46V189.407L265.061 200.009L264.614 171.694L113.442 166.46Z" fill="black"/>
<path d="M273.902 143.048H104.159V183.597H273.902V143.048Z" fill="white"/>
<path d="M274.344 184.079H103.717V142.566H274.344V184.079ZM104.601 183.114H273.46V143.531H104.601V183.114Z" fill="#3F3D56"/>
<path d="M208.038 139.187H170.023V183.114H208.038V139.187Z" fill="#F26B27"/>
<path d="M184.96 100.886C194.995 117.13 185.54 143.257 185.54 143.257C185.54 143.257 159.816 143.046 149.781 126.802C139.746 110.558 149.201 84.4315 149.201 84.4315C149.201 84.4315 174.925 84.6421 184.96 100.886Z" fill="#F26B27"/>
<path d="M189.564 100.886C179.53 117.13 188.984 143.257 188.984 143.257C188.984 143.257 214.709 143.046 224.744 126.802C234.779 110.558 225.324 84.4315 225.324 84.4315C225.324 84.4315 199.599 84.6421 189.564 100.886Z" fill="#F26B27"/>
<path d="M162.508 113.12C164.705 113.12 166.486 111.175 166.486 108.776C166.486 106.376 164.705 104.431 162.508 104.431C160.311 104.431 158.53 106.376 158.53 108.776C158.53 111.175 160.311 113.12 162.508 113.12Z" fill="#3F3D56"/>
<path d="M186.378 157.047C188.575 157.047 190.357 155.102 190.357 152.703C190.357 150.303 188.575 148.358 186.378 148.358C184.181 148.358 182.4 150.303 182.4 152.703C182.4 155.102 184.181 157.047 186.378 157.047Z" fill="#3F3D56"/>
<path d="M186.378 252.142C188.575 252.142 190.357 250.197 190.357 247.798C190.357 245.398 188.575 243.453 186.378 243.453C184.181 243.453 182.4 245.398 182.4 247.798C182.4 250.197 184.181 252.142 186.378 252.142Z" fill="#3F3D56"/>
<path d="M173.117 127.602C174.582 127.602 175.769 126.305 175.769 124.705C175.769 123.106 174.582 121.809 173.117 121.809C171.652 121.809 170.465 123.106 170.465 124.705C170.465 126.305 171.652 127.602 173.117 127.602Z" fill="#3F3D56"/>
<path d="M212.901 102.983C214.365 102.983 215.553 101.686 215.553 100.087C215.553 98.4872 214.365 97.1905 212.901 97.1905C211.436 97.1905 210.248 98.4872 210.248 100.087C210.248 101.686 211.436 102.983 212.901 102.983Z" fill="#3F3D56"/>
<path d="M195.661 171.046C197.126 171.046 198.313 169.749 198.313 168.15C198.313 166.55 197.126 165.253 195.661 165.253C194.196 165.253 193.009 166.55 193.009 168.15C193.009 169.749 194.196 171.046 195.661 171.046Z" fill="#3F3D56"/>
<path d="M179.748 208.698C181.212 208.698 182.4 207.401 182.4 205.801C182.4 204.202 181.212 202.905 179.748 202.905C178.283 202.905 177.095 204.202 177.095 205.801C177.095 207.401 178.283 208.698 179.748 208.698Z" fill="#3F3D56"/>
<path d="M193.451 221.731C194.916 221.731 196.103 220.434 196.103 218.835C196.103 217.235 194.916 215.938 193.451 215.938C191.986 215.938 190.799 217.235 190.799 218.835C190.799 220.434 191.986 221.731 193.451 221.731Z" fill="#3F3D56"/>
<path d="M190.357 276.278C191.821 276.278 193.009 274.981 193.009 273.382C193.009 271.782 191.821 270.485 190.357 270.485C188.892 270.485 187.704 271.782 187.704 273.382C187.704 274.981 188.892 276.278 190.357 276.278Z" fill="#3F3D56"/>
<path d="M323.061 222.488H242.152V297.743H323.061V222.488Z" fill="white"/>
<path d="M323.296 298H241.917V222.231H323.296V298ZM242.387 297.486H322.826V222.745H242.387V297.486Z" fill="#3F3D56"/>
<path d="M292.72 237.128H272.493V297.743H292.72V237.128Z" fill="#F26B27"/>
<path d="M292.72 237.128H272.493V297.743H292.72V237.128Z" fill="#F26B27"/>
<path opacity="0.2" d="M242.387 228.01V240.22L323.061 245.86L322.823 230.795L242.387 228.01Z" fill="black"/>
<path d="M327.765 215.553H237.448V237.128H327.765V215.553Z" fill="white"/>
<path d="M328 237.385H237.213V215.296H328V237.385ZM237.683 236.871H327.53V215.81H237.683V236.871Z" fill="#3F3D56"/>
<path d="M292.72 213.498H272.493V236.871H292.72V213.498Z" fill="#F26B27"/>
<path d="M280.441 193.119C285.78 201.762 280.749 215.664 280.749 215.664C280.749 215.664 267.062 215.552 261.722 206.908C256.383 198.265 261.414 184.364 261.414 184.364C261.414 184.364 275.101 184.476 280.441 193.119Z" fill="#F26B27"/>
<path d="M282.89 193.119C277.551 201.762 282.582 215.664 282.582 215.664C282.582 215.664 296.269 215.552 301.609 206.908C306.948 198.265 301.917 184.364 301.917 184.364C301.917 184.364 288.23 184.476 282.89 193.119Z" fill="#F26B27"/>
<path d="M268.494 199.629C269.663 199.629 270.611 198.594 270.611 197.317C270.611 196.04 269.663 195.005 268.494 195.005C267.325 195.005 266.377 196.04 266.377 197.317C266.377 198.594 267.325 199.629 268.494 199.629Z" fill="#3F3D56"/>
<path d="M281.195 223.001C282.364 223.001 283.312 221.966 283.312 220.69C283.312 219.413 282.364 218.378 281.195 218.378C280.026 218.378 279.078 219.413 279.078 220.69C279.078 221.966 280.026 223.001 281.195 223.001Z" fill="#3F3D56"/>
<path d="M281.195 273.6C282.364 273.6 283.312 272.565 283.312 271.288C283.312 270.012 282.364 268.977 281.195 268.977C280.026 268.977 279.078 270.012 279.078 271.288C279.078 272.565 280.026 273.6 281.195 273.6Z" fill="#3F3D56"/>
<path d="M274.139 207.334C274.918 207.334 275.55 206.644 275.55 205.793C275.55 204.942 274.918 204.252 274.139 204.252C273.36 204.252 272.728 204.942 272.728 205.793C272.728 206.644 273.36 207.334 274.139 207.334Z" fill="#3F3D56"/>
<path d="M295.307 194.235C296.087 194.235 296.718 193.545 296.718 192.694C296.718 191.843 296.087 191.153 295.307 191.153C294.528 191.153 293.896 191.843 293.896 192.694C293.896 193.545 294.528 194.235 295.307 194.235Z" fill="#3F3D56"/>
<path d="M286.134 230.45C286.914 230.45 287.546 229.76 287.546 228.909C287.546 228.058 286.914 227.368 286.134 227.368C285.355 227.368 284.723 228.058 284.723 228.909C284.723 229.76 285.355 230.45 286.134 230.45Z" fill="#3F3D56"/>
<path d="M277.667 250.484C278.446 250.484 279.078 249.794 279.078 248.943C279.078 248.092 278.446 247.402 277.667 247.402C276.888 247.402 276.256 248.092 276.256 248.943C276.256 249.794 276.888 250.484 277.667 250.484Z" fill="#3F3D56"/>
<path d="M284.958 257.419C285.738 257.419 286.37 256.729 286.37 255.877C286.37 255.026 285.738 254.336 284.958 254.336C284.179 254.336 283.547 255.026 283.547 255.877C283.547 256.729 284.179 257.419 284.958 257.419Z" fill="#3F3D56"/>
<path d="M283.312 286.442C284.091 286.442 284.723 285.752 284.723 284.901C284.723 284.05 284.091 283.36 283.312 283.36C282.532 283.36 281.901 284.05 281.901 284.901C281.901 285.752 282.532 286.442 283.312 286.442Z" fill="#3F3D56"/>
<path d="M183.843 263.072C184.55 261.443 181.273 258.129 176.523 255.669C171.773 253.209 167.349 252.534 166.642 254.163C165.935 255.791 169.212 259.105 173.962 261.565C178.712 264.026 183.136 264.7 183.843 263.072Z" fill="#2F2E41"/>
<path d="M223.044 279.843C224.309 278.686 222.599 274.18 219.224 269.778C215.85 265.377 212.088 262.746 210.823 263.903C209.557 265.06 211.267 269.566 214.642 273.968C218.017 278.37 221.779 281 223.044 279.843Z" fill="#2F2E41"/>
<path d="M196.685 289.053C207.199 289.053 215.722 279.745 215.722 268.264C215.722 256.782 207.199 247.474 196.685 247.474C186.171 247.474 177.647 256.782 177.647 268.264C177.647 279.745 186.171 289.053 196.685 289.053Z" fill="#2F2E41"/>
<path d="M204.743 284.579H198.959V295.895H204.743V284.579Z" fill="#2F2E41"/>
<path d="M193.176 284.579H187.392V295.895H193.176V284.579Z" fill="#2F2E41"/>
<path d="M199.923 298C202.585 298 204.743 297.116 204.743 296.026C204.743 294.936 202.585 294.053 199.923 294.053C197.261 294.053 195.104 294.936 195.104 296.026C195.104 297.116 197.261 298 199.923 298Z" fill="#2F2E41"/>
<path d="M188.356 297.737C191.018 297.737 193.176 296.853 193.176 295.763C193.176 294.673 191.018 293.79 188.356 293.79C185.694 293.79 183.537 294.673 183.537 295.763C183.537 296.853 185.694 297.737 188.356 297.737Z" fill="#2F2E41"/>
<path d="M190.707 242.131C192.407 234.655 199.911 230.256 207.467 232.305C215.023 234.354 219.771 242.075 218.071 249.551C216.371 257.027 210.731 257.051 203.175 255.002C195.619 252.953 189.007 249.607 190.707 242.131Z" fill="#E6E6E6"/>
<path d="M193.839 270.808C197.344 270.808 200.186 267.705 200.186 263.877C200.186 260.049 197.344 256.946 193.839 256.946C190.333 256.946 187.492 260.049 187.492 263.877C187.492 267.705 190.333 270.808 193.839 270.808Z" fill="white"/>
<path d="M191.23 263.703C192.399 263.703 193.346 262.668 193.346 261.392C193.346 260.116 192.399 259.082 191.23 259.082C190.062 259.082 189.115 260.116 189.115 261.392C189.115 262.668 190.062 263.703 191.23 263.703Z" fill="#3F3D56"/>
<path d="M197.82 278.317C197.92 278.914 197.911 279.527 197.793 280.12C197.676 280.713 197.453 281.275 197.137 281.774C196.821 282.273 196.418 282.7 195.951 283.028C195.484 283.357 194.962 283.582 194.415 283.691C193.868 283.8 193.308 283.79 192.764 283.662C192.221 283.534 191.706 283.29 191.25 282.945C190.793 282.599 190.402 282.159 190.101 281.649C189.8 281.139 189.594 280.57 189.494 279.973L189.493 279.964C189.077 277.453 190.855 276.564 193.154 276.109C195.454 275.655 197.404 275.806 197.82 278.317Z" fill="white"/>
<path d="M235.174 111.693C240.033 109.501 243.461 106.375 242.831 104.709C242.201 103.043 237.752 103.469 232.893 105.661C228.034 107.853 224.606 110.979 225.236 112.645C225.866 114.311 230.315 113.885 235.174 111.693Z" fill="#2F2E41"/>
<path d="M281.835 126.041C283.1 124.884 281.39 120.378 278.016 115.977C274.641 111.575 270.879 108.944 269.614 110.101C268.348 111.258 270.058 115.765 273.433 120.166C276.808 124.568 280.57 127.198 281.835 126.041Z" fill="#2F2E41"/>
<path d="M255.476 135.251C265.99 135.251 274.513 125.943 274.513 114.462C274.513 102.98 265.99 93.6724 255.476 93.6724C244.962 93.6724 236.438 102.98 236.438 114.462C236.438 125.943 244.962 135.251 255.476 135.251Z" fill="#2F2E41"/>
<path d="M263.534 130.777H257.75V142.093H263.534V130.777Z" fill="#2F2E41"/>
<path d="M251.967 130.777H246.183V142.093H251.967V130.777Z" fill="#2F2E41"/>
<path d="M258.714 144.198C261.376 144.198 263.534 143.314 263.534 142.224C263.534 141.134 261.376 140.251 258.714 140.251C256.052 140.251 253.895 141.134 253.895 142.224C253.895 143.314 256.052 144.198 258.714 144.198Z" fill="#2F2E41"/>
<path d="M247.147 143.935C249.809 143.935 251.967 143.051 251.967 141.961C251.967 140.871 249.809 139.988 247.147 139.988C244.485 139.988 242.328 140.871 242.328 141.961C242.328 143.051 244.485 143.935 247.147 143.935Z" fill="#2F2E41"/>
<path d="M249.498 88.329C251.198 80.8531 258.702 76.4538 266.258 78.5027C273.814 80.5517 278.562 88.273 276.862 95.7488C275.162 103.225 269.522 103.249 261.966 101.2C254.41 99.1509 247.798 95.8048 249.498 88.329Z" fill="#F26B27"/>
<path d="M252.63 117.006C256.135 117.006 258.977 113.903 258.977 110.075C258.977 106.247 256.135 103.144 252.63 103.144C249.124 103.144 246.283 106.247 246.283 110.075C246.283 113.903 249.124 117.006 252.63 117.006Z" fill="white"/>
<path d="M250.021 113.28C251.19 113.28 252.137 112.246 252.137 110.97C252.137 109.694 251.19 108.659 250.021 108.659C248.853 108.659 247.906 109.694 247.906 110.97C247.906 112.246 248.853 113.28 250.021 113.28Z" fill="#3F3D56"/>
<path d="M256.611 124.516C256.812 125.721 256.566 126.965 255.928 127.973C255.289 128.98 254.31 129.67 253.206 129.889C252.102 130.109 250.963 129.84 250.041 129.143C249.118 128.446 248.486 127.376 248.285 126.171L248.284 126.162C247.868 123.651 249.646 122.762 251.945 122.307C254.245 121.853 256.195 122.004 256.611 124.516Z" fill="white"/>
<path d="M92.5948 289.053C103.109 289.053 111.632 279.745 111.632 268.263C111.632 256.782 103.109 247.474 92.5948 247.474C82.0807 247.474 73.5574 256.782 73.5574 268.263C73.5574 279.745 82.0807 289.053 92.5948 289.053Z" fill="#2F2E41"/>
<path d="M89.7029 284.579H83.9194V295.895H89.7029V284.579Z" fill="#2F2E41"/>
<path d="M101.27 284.579H95.4866V295.895H101.27V284.579Z" fill="#2F2E41"/>
<path d="M88.739 298C91.4008 298 93.5586 297.116 93.5586 296.026C93.5586 294.936 91.4008 294.053 88.739 294.053C86.0772 294.053 83.9194 294.936 83.9194 296.026C83.9194 297.116 86.0772 298 88.739 298Z" fill="#2F2E41"/>
<path d="M100.306 297.737C102.968 297.737 105.126 296.853 105.126 295.763C105.126 294.673 102.968 293.79 100.306 293.79C97.6444 293.79 95.4866 294.673 95.4866 295.763C95.4866 296.853 97.6444 297.737 100.306 297.737Z" fill="#2F2E41"/>
<path d="M74.1279 248.93C72.5907 241.412 77.5044 233.816 85.1031 231.963C92.7017 230.11 100.108 234.703 101.645 242.22C103.182 249.738 98.1462 252.511 90.5476 254.364C82.949 256.216 75.6651 256.448 74.1279 248.93Z" fill="#F26B27"/>
<path d="M113.109 259.179C117.232 254.673 119.524 249.875 118.229 248.461C116.934 247.048 112.542 249.555 108.419 254.061C104.296 258.566 102.004 263.365 103.299 264.778C104.594 266.192 108.987 263.685 113.109 259.179Z" fill="#2F2E41"/>
<path d="M77.25 266.226C78.5453 264.813 76.253 260.015 72.1302 255.509C68.0073 251.003 63.615 248.496 62.3197 249.91C61.0244 251.323 63.3166 256.121 67.4395 260.627C71.5624 265.133 75.9547 267.64 77.25 266.226Z" fill="#2F2E41"/>
<path d="M91.7938 272.423C95.3872 272.423 98.3002 269.241 98.3002 265.317C98.3002 261.393 95.3872 258.212 91.7938 258.212C88.2004 258.212 85.2874 261.393 85.2874 265.317C85.2874 269.241 88.2004 272.423 91.7938 272.423Z" fill="white"/>
<path d="M91.7938 267.686C92.9916 267.686 93.9627 266.625 93.9627 265.317C93.9627 264.009 92.9916 262.949 91.7938 262.949C90.596 262.949 89.625 264.009 89.625 265.317C89.625 266.625 90.596 267.686 91.7938 267.686Z" fill="#3F3D56"/>
<path d="M96.9587 278.458C97.0582 279.055 97.0491 279.668 96.9318 280.261C96.8146 280.854 96.5915 281.416 96.2753 281.915C95.9591 282.414 95.556 282.84 95.089 283.169C94.622 283.498 94.1003 283.723 93.5536 283.832C93.0069 283.94 92.446 283.93 91.9028 283.802C91.3597 283.674 90.8449 283.431 90.388 283.085C89.931 282.74 89.5408 282.3 89.2397 281.79C88.9385 281.28 88.7323 280.71 88.6328 280.113L88.6313 280.104C88.215 277.593 89.9929 276.704 92.2925 276.25C94.592 275.795 96.5424 275.947 96.9587 278.458Z" fill="white"/>
</g>
<path d="M140.071 338.24C139.751 337.653 139.311 337.207 138.751 336.9C138.191 336.593 137.537 336.44 136.791 336.44C135.964 336.44 135.231 336.627 134.591 337C133.951 337.373 133.451 337.907 133.091 338.6C132.731 339.293 132.551 340.093 132.551 341C132.551 341.933 132.731 342.747 133.091 343.44C133.464 344.133 133.977 344.667 134.631 345.04C135.284 345.413 136.044 345.6 136.911 345.6C137.977 345.6 138.851 345.32 139.531 344.76C140.211 344.187 140.657 343.393 140.871 342.38H136.071V340.24H143.631V342.68C143.444 343.653 143.044 344.553 142.431 345.38C141.817 346.207 141.024 346.873 140.051 347.38C139.091 347.873 138.011 348.12 136.811 348.12C135.464 348.12 134.244 347.82 133.151 347.22C132.071 346.607 131.217 345.76 130.591 344.68C129.977 343.6 129.671 342.373 129.671 341C129.671 339.627 129.977 338.4 130.591 337.32C131.217 336.227 132.071 335.38 133.151 334.78C134.244 334.167 135.457 333.86 136.791 333.86C138.364 333.86 139.731 334.247 140.891 335.02C142.051 335.78 142.851 336.853 143.291 338.24H140.071ZM156.002 342.22C156.002 342.62 155.976 342.98 155.922 343.3H147.822C147.889 344.1 148.169 344.727 148.662 345.18C149.156 345.633 149.762 345.86 150.482 345.86C151.522 345.86 152.262 345.413 152.702 344.52H155.722C155.402 345.587 154.789 346.467 153.882 347.16C152.976 347.84 151.862 348.18 150.542 348.18C149.476 348.18 148.516 347.947 147.662 347.48C146.822 347 146.162 346.327 145.682 345.46C145.216 344.593 144.982 343.593 144.982 342.46C144.982 341.313 145.216 340.307 145.682 339.44C146.149 338.573 146.802 337.907 147.642 337.44C148.482 336.973 149.449 336.74 150.542 336.74C151.596 336.74 152.536 336.967 153.362 337.42C154.202 337.873 154.849 338.52 155.302 339.36C155.769 340.187 156.002 341.14 156.002 342.22ZM153.102 341.42C153.089 340.7 152.829 340.127 152.322 339.7C151.816 339.26 151.196 339.04 150.462 339.04C149.769 339.04 149.182 339.253 148.702 339.68C148.236 340.093 147.949 340.673 147.842 341.42H153.102ZM161.306 339.22V344.58C161.306 344.953 161.393 345.227 161.566 345.4C161.753 345.56 162.059 345.64 162.486 345.64H163.786V348H162.026C159.666 348 158.486 346.853 158.486 344.56V339.22H157.166V336.92H158.486V334.18H161.306V336.92H163.786V339.22H161.306ZM169.22 334.04L164.62 336.14V334.14L169.22 331.76V334.04ZM175.04 348.18C174.133 348.18 173.32 348.02 172.6 347.7C171.88 347.367 171.307 346.92 170.88 346.36C170.467 345.8 170.24 345.18 170.2 344.5H173.02C173.073 344.927 173.28 345.28 173.64 345.56C174.013 345.84 174.473 345.98 175.02 345.98C175.553 345.98 175.967 345.873 176.26 345.66C176.567 345.447 176.72 345.173 176.72 344.84C176.72 344.48 176.533 344.213 176.16 344.04C175.8 343.853 175.22 343.653 174.42 343.44C173.593 343.24 172.913 343.033 172.38 342.82C171.86 342.607 171.407 342.28 171.02 341.84C170.647 341.4 170.46 340.807 170.46 340.06C170.46 339.447 170.633 338.887 170.98 338.38C171.34 337.873 171.847 337.473 172.5 337.18C173.167 336.887 173.947 336.74 174.84 336.74C176.16 336.74 177.213 337.073 178 337.74C178.787 338.393 179.22 339.28 179.3 340.4H176.62C176.58 339.96 176.393 339.613 176.06 339.36C175.74 339.093 175.307 338.96 174.76 338.96C174.253 338.96 173.86 339.053 173.58 339.24C173.313 339.427 173.18 339.687 173.18 340.02C173.18 340.393 173.367 340.68 173.74 340.88C174.113 341.067 174.693 341.26 175.48 341.46C176.28 341.66 176.94 341.867 177.46 342.08C177.98 342.293 178.427 342.627 178.8 343.08C179.187 343.52 179.387 344.107 179.4 344.84C179.4 345.48 179.22 346.053 178.86 346.56C178.513 347.067 178.007 347.467 177.34 347.76C176.687 348.04 175.92 348.18 175.04 348.18ZM190.704 348.18C189.797 348.18 188.984 348.02 188.264 347.7C187.544 347.367 186.971 346.92 186.544 346.36C186.131 345.8 185.904 345.18 185.864 344.5H188.684C188.737 344.927 188.944 345.28 189.304 345.56C189.677 345.84 190.137 345.98 190.684 345.98C191.217 345.98 191.631 345.873 191.924 345.66C192.231 345.447 192.384 345.173 192.384 344.84C192.384 344.48 192.197 344.213 191.824 344.04C191.464 343.853 190.884 343.653 190.084 343.44C189.257 343.24 188.577 343.033 188.044 342.82C187.524 342.607 187.071 342.28 186.684 341.84C186.311 341.4 186.124 340.807 186.124 340.06C186.124 339.447 186.297 338.887 186.644 338.38C187.004 337.873 187.511 337.473 188.164 337.18C188.831 336.887 189.611 336.74 190.504 336.74C191.824 336.74 192.877 337.073 193.664 337.74C194.451 338.393 194.884 339.28 194.964 340.4H192.284C192.244 339.96 192.057 339.613 191.724 339.36C191.404 339.093 190.971 338.96 190.424 338.96C189.917 338.96 189.524 339.053 189.244 339.24C188.977 339.427 188.844 339.687 188.844 340.02C188.844 340.393 189.031 340.68 189.404 340.88C189.777 341.067 190.357 341.26 191.144 341.46C191.944 341.66 192.604 341.867 193.124 342.08C193.644 342.293 194.091 342.627 194.464 343.08C194.851 343.52 195.051 344.107 195.064 344.84C195.064 345.48 194.884 346.053 194.524 346.56C194.177 347.067 193.671 347.467 193.004 347.76C192.351 348.04 191.584 348.18 190.704 348.18ZM200.622 339.22V344.58C200.622 344.953 200.709 345.227 200.882 345.4C201.069 345.56 201.376 345.64 201.802 345.64H203.102V348H201.342C198.982 348 197.802 346.853 197.802 344.56V339.22H196.482V336.92H197.802V334.18H200.622V336.92H203.102V339.22H200.622ZM204.396 342.42C204.396 341.3 204.616 340.307 205.056 339.44C205.51 338.573 206.116 337.907 206.876 337.44C207.65 336.973 208.51 336.74 209.456 336.74C210.283 336.74 211.003 336.907 211.616 337.24C212.243 337.573 212.743 337.993 213.116 338.5V336.92H215.936V348H213.116V346.38C212.756 346.9 212.256 347.333 211.616 347.68C210.99 348.013 210.263 348.18 209.436 348.18C208.503 348.18 207.65 347.94 206.876 347.46C206.116 346.98 205.51 346.307 205.056 345.44C204.616 344.56 204.396 343.553 204.396 342.42ZM213.116 342.46C213.116 341.78 212.983 341.2 212.716 340.72C212.45 340.227 212.09 339.853 211.636 339.6C211.183 339.333 210.696 339.2 210.176 339.2C209.656 339.2 209.176 339.327 208.736 339.58C208.296 339.833 207.936 340.207 207.656 340.7C207.39 341.18 207.256 341.753 207.256 342.42C207.256 343.087 207.39 343.673 207.656 344.18C207.936 344.673 208.296 345.053 208.736 345.32C209.19 345.587 209.67 345.72 210.176 345.72C210.696 345.72 211.183 345.593 211.636 345.34C212.09 345.073 212.45 344.7 212.716 344.22C212.983 343.727 213.116 343.14 213.116 342.46ZM221.471 338.64C221.831 338.053 222.298 337.593 222.871 337.26C223.458 336.927 224.124 336.76 224.871 336.76V339.7H224.131C223.251 339.7 222.584 339.907 222.131 340.32C221.691 340.733 221.471 341.453 221.471 342.48V348H218.671V336.92H221.471V338.64ZM230.017 339.22V344.58C230.017 344.953 230.104 345.227 230.277 345.4C230.464 345.56 230.77 345.64 231.197 345.64H232.497V348H230.737C228.377 348 227.197 346.853 227.197 344.56V339.22H225.877V336.92H227.197V334.18H230.017V336.92H232.497V339.22H230.017ZM244.811 342.22C244.811 342.62 244.784 342.98 244.731 343.3H236.631C236.698 344.1 236.978 344.727 237.471 345.18C237.964 345.633 238.571 345.86 239.291 345.86C240.331 345.86 241.071 345.413 241.511 344.52H244.531C244.211 345.587 243.598 346.467 242.691 347.16C241.784 347.84 240.671 348.18 239.351 348.18C238.284 348.18 237.324 347.947 236.471 347.48C235.631 347 234.971 346.327 234.491 345.46C234.024 344.593 233.791 343.593 233.791 342.46C233.791 341.313 234.024 340.307 234.491 339.44C234.958 338.573 235.611 337.907 236.451 337.44C237.291 336.973 238.258 336.74 239.351 336.74C240.404 336.74 241.344 336.967 242.171 337.42C243.011 337.873 243.658 338.52 244.111 339.36C244.578 340.187 244.811 341.14 244.811 342.22ZM241.911 341.42C241.898 340.7 241.638 340.127 241.131 339.7C240.624 339.26 240.004 339.04 239.271 339.04C238.578 339.04 237.991 339.253 237.511 339.68C237.044 340.093 236.758 340.673 236.651 341.42H241.911ZM246.135 342.42C246.135 341.3 246.355 340.307 246.795 339.44C247.248 338.573 247.861 337.907 248.635 337.44C249.408 336.973 250.268 336.74 251.215 336.74C251.935 336.74 252.621 336.9 253.275 337.22C253.928 337.527 254.448 337.94 254.835 338.46V333.2H257.675V348H254.835V346.36C254.488 346.907 254.001 347.347 253.375 347.68C252.748 348.013 252.021 348.18 251.195 348.18C250.261 348.18 249.408 347.94 248.635 347.46C247.861 346.98 247.248 346.307 246.795 345.44C246.355 344.56 246.135 343.553 246.135 342.42ZM254.855 342.46C254.855 341.78 254.721 341.2 254.455 340.72C254.188 340.227 253.828 339.853 253.375 339.6C252.921 339.333 252.435 339.2 251.915 339.2C251.395 339.2 250.915 339.327 250.475 339.58C250.035 339.833 249.675 340.207 249.395 340.7C249.128 341.18 248.995 341.753 248.995 342.42C248.995 343.087 249.128 343.673 249.395 344.18C249.675 344.673 250.035 345.053 250.475 345.32C250.928 345.587 251.408 345.72 251.915 345.72C252.435 345.72 252.921 345.593 253.375 345.34C253.828 345.073 254.188 344.7 254.455 344.22C254.721 343.727 254.855 343.14 254.855 342.46Z" fill="black"/>
<defs>
<filter id="filter0_i_98_430" x="16" y="21" width="344" height="634" filterUnits="userSpaceOnUse" color-interpolation-filters="sRGB">
<feFlood flood-opacity="0" result="BackgroundImageFix"/>
<feBlend mode="normal" in="SourceGraphic" in2="BackgroundImageFix" result="shape"/>
<feColorMatrix in="SourceAlpha" type="matrix" values="0 0 0 0 0 0 0 0 0 0 0 0 0 0 0 0 0 0 127 0" result="hardAlpha"/>
<feOffset dy="4"/>
<feGaussianBlur stdDeviation="2"/>
<feComposite in2="hardAlpha" operator="arithmetic" k2="-1" k3="1"/>
<feColorMatrix type="matrix" values="0 0 0 0 0 0 0 0 0 0 0 0 0 0 0 0 0 0 0.25 0"/>
<feBlend mode="normal" in2="shape" result="effect1_innerShadow_98_430"/>
</filter>
<filter id="filter1_b_98_430" x="39" y="417" width="310" height="46" filterUnits="userSpaceOnUse" color-interpolation-filters="sRGB">
<feFlood flood-opacity="0" result="BackgroundImageFix"/>
<feGaussianBlur in="BackgroundImage" stdDeviation="2"/>
<feComposite in2="SourceAlpha" operator="in" result="effect1_backgroundBlur_98_430"/>
<feBlend mode="normal" in="SourceGraphic" in2="effect1_backgroundBlur_98_430" result="shape"/>
</filter>
<filter id="filter2_d_98_430" x="44" y="78" width="288" height="228" filterUnits="userSpaceOnUse" color-interpolation-filters="sRGB">
<feFlood flood-opacity="0" result="BackgroundImageFix"/>
<feColorMatrix in="SourceAlpha" type="matrix" values="0 0 0 0 0 0 0 0 0 0 0 0 0 0 0 0 0 0 127 0" result="hardAlpha"/>
<feOffset dy="4"/>
<feGaussianBlur stdDeviation="2"/>
<feComposite in2="hardAlpha" operator="out"/>
<feColorMatrix type="matrix" values="0 0 0 0 0 0 0 0 0 0 0 0 0 0 0 0 0 0 0.25 0"/>
<feBlend mode="normal" in2="BackgroundImageFix" result="effect1_dropShadow_98_430"/>
<feBlend mode="normal" in="SourceGraphic" in2="effect1_dropShadow_98_430" result="shape"/>
</filter>
<clipPath id="clip0_98_430">
<rect width="280" height="220" fill="white" transform="translate(48 78)"/>
</clipPath>
</defs>
</svg>
